<svg width="130" height="129" viewBox="0 0 130 129" fill="none" xmlns="http://www.w3.org/2000/svg">
<path d="M35.6817 63.0081C34.7772 63.0081 33.8848 62.8408 33.0677 62.4916C29.3645 60.9094 29.1448 56.8375 29.2221 55.1603C29.2707 54.1031 30.1644 53.2865 31.2244 53.3346C32.2813 53.3835 33.0987 54.2797 33.05 55.3369C32.9883 56.6702 33.2027 58.3825 34.5736 58.9681C35.7323 59.4632 37.4592 59.0444 38.4224 58.0341C39.176 57.2432 39.2902 56.2898 38.7613 55.1999C36.9178 51.4017 33.0888 49.8466 28.6555 48.0464C20.7472 44.8355 10.9061 40.839 10.9061 21.6651V13.6556C10.9061 12.1113 11.5083 10.6603 12.6015 9.56988C13.695 8.47943 15.1442 7.87802 16.6915 7.88482C20.982 7.89566 24.9974 10.0108 27.4332 13.5429L28.923 15.7037C29.7636 16.9224 31.1496 17.6503 32.63 17.6503H41.6028C42.661 17.6503 43.5187 18.5079 43.5187 19.5661C43.5187 20.6241 42.661 21.482 41.6028 21.482H32.63C29.8895 21.482 27.3244 20.135 25.7686 17.8788L24.2788 15.718C22.5562 13.2202 19.7162 11.7241 16.6822 11.7165C16.6804 11.7165 16.6786 11.7165 16.6771 11.7165C16.1601 11.7165 15.6741 11.9176 15.3077 12.2829C14.9404 12.6493 14.7381 13.137 14.7381 13.6558V21.6654C14.7381 29.163 16.3191 34.5702 19.5713 38.1963C22.4297 41.3832 26.3274 42.966 30.0969 44.4966C34.8288 46.4183 39.7223 48.4052 42.208 53.5271C43.434 56.0532 43.0556 58.7264 41.1959 60.6778C39.7643 62.1792 37.6935 63.0081 35.6817 63.0081Z" fill="#FFB125"/>
<path d="M94.6998 63.0076C92.6879 63.0076 90.6171 62.1787 89.1858 60.677C87.3261 58.7257 86.9477 56.0527 88.1737 53.5266C90.6595 48.4046 95.5529 46.4175 100.285 44.4958C104.054 42.965 107.952 41.3822 110.81 38.1955C114.063 34.5694 115.644 29.1622 115.644 21.6646V13.655C115.644 13.1362 115.441 12.6487 115.074 12.2821C114.707 11.9155 114.212 11.712 113.7 11.7157C110.666 11.7233 107.826 13.2191 106.103 15.7175L104.614 17.8778C103.058 20.1342 100.493 21.4812 97.7519 21.4812H88.7791C87.7209 21.4812 86.8633 20.6235 86.8633 19.5653C86.8633 18.5071 87.7209 17.6495 88.7791 17.6495H97.7519C99.2324 17.6495 100.618 16.9216 101.459 15.7026L102.948 13.5424C105.384 10.01 109.4 7.89487 113.69 7.88403C113.696 7.88403 113.701 7.88403 113.705 7.88403C115.244 7.88403 116.691 8.48217 117.78 9.5691C118.873 10.6595 119.476 12.1105 119.476 13.6548V21.6644C119.476 40.8382 109.635 44.8347 101.727 48.0456C97.2931 49.8461 93.4642 51.4009 91.6207 55.1993C91.0918 56.289 91.2057 57.2424 91.9595 58.0333C92.9225 59.0436 94.6496 59.4624 95.8084 58.9673C97.1792 58.3817 97.3934 56.6695 97.3319 55.3361C97.2833 54.2792 98.1006 53.383 99.1576 53.3339C100.217 53.2873 101.111 54.1026 101.16 55.1595C101.237 56.8368 101.018 60.9086 97.3143 62.4908C96.4967 62.8403 95.604 63.0076 94.6998 63.0076Z" fill="#FFB125"/>
<path d="M69.4167 73.4216H60.9629V111.814H69.4167V73.4216Z" fill="#FED130"/>
<path d="M34.1086 4.27051V29.2061C34.1086 46.8889 42.5128 63.5193 56.7494 74.0076L65.1908 80.2263L73.6323 74.0073C87.8689 63.519 96.273 46.8886 96.273 29.2058V4.27051H34.1086Z" fill="#FED130"/>
<path d="M84.5201 4.27026V29.2058C84.5201 46.8886 76.116 63.5191 61.8793 74.0074L59.3145 75.897L65.1908 80.2263L73.6322 74.0074C87.8688 63.5191 96.273 46.8886 96.273 29.2058V4.27026H84.5201Z" fill="#F7BC14"/>
<path d="M98.5574 8.54096H31.8241C30.8521 8.54096 30.0642 7.7531 30.0642 6.78107V1.75989C30.0642 0.787857 30.8521 0 31.8241 0H98.5572C99.5292 0 100.317 0.787857 100.317 1.75989V6.78107C100.317 7.7531 99.5294 8.54096 98.5574 8.54096Z" fill="#FFB125"/>
<path d="M98.5571 0H88.6292V8.54096H98.5571C99.5291 8.54096 100.317 7.7531 100.317 6.78107V1.75989C100.317 0.787857 99.5289 0 98.5571 0Z" fill="#FF901D"/>
<path d="M65.5394 23.2021L69.9561 32.1512C70.0128 32.2659 70.1221 32.3455 70.2489 32.3639L80.1249 33.799C80.4439 33.8454 80.5711 34.2374 80.3403 34.4621L73.194 41.4281C73.1022 41.5176 73.0604 41.6461 73.0821 41.7723L74.7692 51.6083C74.8236 51.926 74.4903 52.1681 74.205 52.0182L65.3718 47.3742C65.2584 47.3148 65.1231 47.3148 65.01 47.3742L56.1768 52.0182C55.8916 52.1681 55.5582 51.926 55.6127 51.6083L57.2997 41.7723C57.3214 41.6461 57.2796 41.5176 57.1879 41.4281L50.0415 34.4621C49.8107 34.2371 49.9379 33.8454 50.2569 33.799L60.133 32.3639C60.2597 32.3455 60.369 32.2659 60.4257 32.1512L64.8425 23.2021C64.9846 22.9131 65.3968 22.9131 65.5394 23.2021Z" fill="white"/>
<path d="M69.9862 83.206H60.3949C58.5967 83.206 57.1389 81.7482 57.1389 79.95V78.5433C57.1389 76.7452 58.5967 75.2874 60.3949 75.2874H69.9862C71.7844 75.2874 73.2422 76.7452 73.2422 78.5433V79.95C73.2422 81.7482 71.7844 83.206 69.9862 83.206Z" fill="#FFB125"/>
<path d="M81.6837 117.512H48.698V110.495C48.698 108.077 50.6584 106.116 53.0767 106.116H77.3053C79.7235 106.116 81.684 108.077 81.684 110.495V117.512H81.6837Z" fill="#FFB125"/>
<path d="M77.3047 106.116H70.0366V117.512H81.6834V110.495C81.6834 108.077 79.7232 106.116 77.3047 106.116Z" fill="#FF901D"/>
<path d="M90.8877 129H39.4933C37.9566 129 36.8019 127.598 37.0967 126.09L38.9375 116.669C39.1614 115.523 40.166 114.696 41.334 114.696H89.0464C90.2145 114.696 91.219 115.523 91.443 116.669L93.2838 126.09C93.5788 127.598 92.4241 129 90.8877 129Z" fill="#FF901D"/>
<path d="M93.2844 126.09L91.4436 116.669C91.2196 115.522 90.2151 114.695 89.047 114.695H79.2402L82.0352 129H90.8875C92.4242 129 93.5789 127.598 93.2844 126.09Z" fill="#FF6D3A"/>
</svg>
