<svg width="117" height="116" viewBox="0 0 117 116" fill="none" xmlns="http://www.w3.org/2000/svg">
<path d="M62.3334 92.0681C62.5306 94.9002 62.9384 97.8613 63.6498 100.811H53.1191C53.8305 97.8613 54.2384 94.9002 54.4355 92.0681L54.3856 82.2059C53.9823 76.8205 53.1191 73.1819 53.1191 73.1819H63.6498C63.6498 73.1819 62.7866 76.8205 62.3833 82.2081L62.3334 92.0681Z" fill="#E5EAF9"/>
<path d="M62.3328 92.0681C62.5299 94.9002 62.9377 97.8613 63.6491 100.811H59.3444C58.633 97.8613 58.2252 94.9002 58.0281 92.0681L58.0779 82.2081C58.4812 76.8205 59.3444 73.1819 59.3444 73.1819H63.6491C63.6491 73.1819 62.7859 76.8205 62.3826 82.2081L62.3328 92.0681Z" fill="#CBD6EF"/>
<path d="M86.0151 114.301C86.0151 115.239 85.2539 116 84.3159 116H32.4517C31.5137 116 30.7524 115.239 30.7524 114.301C30.7524 113.363 31.5137 112.601 32.4517 112.601C33.4984 112.601 34.2211 112.434 34.4341 112.142C34.6788 111.806 34.7467 110.966 34.8124 110.155C34.9824 108.079 35.2384 104.941 38.7025 102.587C42.2528 100.174 48.6917 99.0032 58.3838 99.0032C68.0759 99.0032 74.5148 100.174 78.065 102.587C81.5292 104.941 81.7852 108.079 81.9551 110.155C82.0208 110.966 82.0888 111.806 82.3312 112.142C82.5329 112.416 83.1808 112.581 84.1233 112.599C84.1868 112.601 84.2502 112.601 84.3159 112.601C85.2539 112.601 86.0151 113.363 86.0151 114.301Z" fill="#5C5E89"/>
<path d="M108.845 10.5431C104.797 8.06722 99.7299 7.72035 96.2349 9.67944C93.8966 10.9903 92.5553 13.2283 92.5553 15.8193C92.5553 16.7577 93.3159 17.5185 94.2545 17.5185C95.1932 17.5185 95.9538 16.7577 95.9538 15.8193C95.9538 14.435 96.6076 13.3665 97.8968 12.6438C100.314 11.2885 104.088 11.6165 107.072 13.4422C109.405 14.8691 113.273 18.4683 112.966 26.5416C112.671 34.283 107.076 37.5675 101.666 40.7439C97.2597 43.3305 92.7035 46.0056 91.9071 51.0448C90.978 56.9243 95.4861 59.9185 97.9992 60.6802C98.1632 60.7299 98.3286 60.7536 98.4915 60.7536C99.2158 60.7536 99.8844 60.2842 100.11 59.5551C100.387 58.6627 99.8855 57.7127 98.9947 57.4309C98.5409 57.2872 94.5801 55.9027 95.2639 51.5751C95.8092 48.123 99.3205 46.0615 103.386 43.6747C109.004 40.3764 115.996 36.2718 116.361 26.6709C116.735 16.8667 111.813 12.3581 108.845 10.5431Z" fill="#E5EAF9"/>
<path d="M15.0974 40.7439C9.68683 37.5675 4.0921 34.2831 3.79779 26.5416C3.4908 18.4683 7.35845 14.8691 9.69136 13.4422C12.6756 11.6166 16.4486 11.2885 18.8667 12.6438C20.1561 13.3666 20.8097 14.435 20.8097 15.8193C20.8097 16.7578 21.5705 17.5186 22.5089 17.5186C23.4473 17.5186 24.2081 16.7578 24.2081 15.8193C24.2081 13.2281 22.8669 10.9904 20.5285 9.67927C17.0336 7.72041 11.9658 8.06728 7.91806 10.5429C4.95077 12.3581 0.028697 16.8667 0.401619 26.671C0.766838 36.2718 7.75856 40.3767 13.3766 43.6747C17.4423 46.0616 20.9536 48.1231 21.4989 51.5752C22.1827 55.9028 18.2221 57.2873 17.7778 57.428C16.8797 57.7003 16.3722 58.6489 16.6446 59.547C16.867 60.2809 17.5411 60.7539 18.2702 60.7539C18.4335 60.7539 18.5993 60.7304 18.7636 60.6805C21.2771 59.9186 25.7848 56.9246 24.8556 51.0451C24.0597 46.0056 19.5033 43.3308 15.0974 40.7439Z" fill="#E5EAF9"/>
<path d="M102.856 1.69922C102.856 2.63719 102.095 3.39844 101.157 3.39844C99.7202 3.39844 98.6984 3.77453 97.9417 4.57883C95.3294 7.36328 95.8324 15.2771 96.3671 23.6554C97.2371 37.2763 98.3155 54.23 88.272 64.9351C82.0098 71.6096 72.4604 74.9152 59.0978 75.0284C58.8621 75.0284 58.6242 75.0307 58.3841 75.0307C44.6453 75.0307 34.8694 71.7274 28.4962 64.9351C18.4504 54.23 19.5311 37.2763 20.4011 23.6554C20.9358 15.2771 21.4388 7.36328 18.8265 4.57883C18.0698 3.77453 17.048 3.39844 15.6116 3.39844C14.6736 3.39844 13.9124 2.63719 13.9124 1.69922C13.9124 0.76125 14.6736 0 15.6116 0H101.157C102.095 0 102.856 0.76125 102.856 1.69922Z" fill="#A9BBE0"/>
<path d="M97.9413 4.57883C95.3291 7.36328 95.832 15.2771 96.3667 23.6554C97.2367 37.2763 98.3152 54.23 88.2716 64.9351C82.0095 71.6096 72.4601 74.9152 59.0974 75.0284C115.425 74.4348 73.108 3.39844 101.156 3.39844C99.7199 3.39844 98.6981 3.77453 97.9413 4.57883Z" fill="#8794C6"/>
<path d="M85.376 53.2888C86.3144 53.2888 87.0752 52.5281 87.0752 51.5896C87.0752 50.6511 86.3144 49.8904 85.376 49.8904C84.4375 49.8904 83.6768 50.6511 83.6768 51.5896C83.6768 52.5281 84.4375 53.2888 85.376 53.2888Z" fill="#CBD6EF"/>
<path d="M80.8157 60.5886C81.7541 60.5886 82.5149 59.8279 82.5149 58.8894C82.5149 57.9509 81.7541 57.1902 80.8157 57.1902C79.8772 57.1902 79.1165 57.9509 79.1165 58.8894C79.1165 59.8279 79.8772 60.5886 80.8157 60.5886Z" fill="#CBD6EF"/>
<path d="M73.5857 65.2581C74.5241 65.2581 75.2849 64.4973 75.2849 63.5588C75.2849 62.6204 74.5241 61.8596 73.5857 61.8596C72.6472 61.8596 71.8865 62.6204 71.8865 63.5588C71.8865 64.4973 72.6472 65.2581 73.5857 65.2581Z" fill="#CBD6EF"/>
<path d="M31.2512 53.2888C32.1897 53.2888 32.9504 52.5281 32.9504 51.5896C32.9504 50.6511 32.1897 49.8904 31.2512 49.8904C30.3128 49.8904 29.552 50.6511 29.552 51.5896C29.552 52.5281 30.3128 53.2888 31.2512 53.2888Z" fill="#CBD6EF"/>
<path d="M86.5903 19.4722C87.5288 19.4722 88.2896 18.7114 88.2896 17.7729C88.2896 16.8345 87.5288 16.0737 86.5903 16.0737C85.6519 16.0737 84.8911 16.8345 84.8911 17.7729C84.8911 18.7114 85.6519 19.4722 86.5903 19.4722Z" fill="#CBD6EF"/>
<path d="M85.9106 11.6648C86.8491 11.6648 87.6099 10.904 87.6099 9.96558C87.6099 9.02712 86.8491 8.26636 85.9106 8.26636C84.9722 8.26636 84.2114 9.02712 84.2114 9.96558C84.2114 10.904 84.9722 11.6648 85.9106 11.6648Z" fill="#CBD6EF"/>
<path d="M77.5278 11.2117C78.4663 11.2117 79.2271 10.4509 79.2271 9.51245C79.2271 8.574 78.4663 7.81323 77.5278 7.81323C76.5894 7.81323 75.8286 8.574 75.8286 9.51245C75.8286 10.4509 76.5894 11.2117 77.5278 11.2117Z" fill="#CBD6EF"/>
<path d="M30.1772 19.4722C31.1157 19.4722 31.8765 18.7114 31.8765 17.7729C31.8765 16.8345 31.1157 16.0737 30.1772 16.0737C29.2388 16.0737 28.478 16.8345 28.478 17.7729C28.478 18.7114 29.2388 19.4722 30.1772 19.4722Z" fill="#CBD6EF"/>
<path d="M30.8569 11.6648C31.7954 11.6648 32.5561 10.904 32.5561 9.96558C32.5561 9.02712 31.7954 8.26636 30.8569 8.26636C29.9185 8.26636 29.1577 9.02712 29.1577 9.96558C29.1577 10.904 29.9185 11.6648 30.8569 11.6648Z" fill="#CBD6EF"/>
<path d="M39.2393 11.2117C40.1777 11.2117 40.9385 10.4509 40.9385 9.51245C40.9385 8.574 40.1777 7.81323 39.2393 7.81323C38.3008 7.81323 37.54 8.574 37.54 9.51245C37.54 10.4509 38.3008 11.2117 39.2393 11.2117Z" fill="#CBD6EF"/>
<path d="M35.8123 60.5886C36.7507 60.5886 37.5115 59.8279 37.5115 58.8894C37.5115 57.9509 36.7507 57.1902 35.8123 57.1902C34.8738 57.1902 34.113 57.9509 34.113 58.8894C34.113 59.8279 34.8738 60.5886 35.8123 60.5886Z" fill="#CBD6EF"/>
<path d="M43.0415 65.2581C43.98 65.2581 44.7407 64.4973 44.7407 63.5588C44.7407 62.6204 43.98 61.8596 43.0415 61.8596C42.1031 61.8596 41.3423 62.6204 41.3423 63.5588C41.3423 64.4973 42.1031 65.2581 43.0415 65.2581Z" fill="#CBD6EF"/>
<path d="M66.4153 87.1178C66.4153 91.5471 62.813 95.1517 58.3837 95.1517C57.5975 95.1517 56.8363 95.0385 56.1181 94.8255C52.7876 93.8445 50.3521 90.761 50.3521 87.1178C50.3521 83.4747 52.7876 80.3912 56.1181 79.4124C56.8363 79.1995 57.5975 79.0862 58.3837 79.0862C62.813 79.0862 66.4153 82.6885 66.4153 87.1178Z" fill="#CBD6EF"/>
<path d="M66.4154 87.1178C66.4154 91.5471 62.8131 95.1517 58.3838 95.1517C57.5976 95.1517 56.8364 95.0385 56.1182 94.8255C59.4486 93.8445 61.8842 90.761 61.8842 87.1178C61.8842 83.4747 59.4486 80.3912 56.1182 79.4124C56.8364 79.1995 57.5976 79.0862 58.3838 79.0862C62.8131 79.0862 66.4154 82.6885 66.4154 87.1178Z" fill="#A9BBE0"/>
<path d="M84.1233 112.599C68.6695 112.504 85.9019 100.804 58.3838 99.0032C68.0761 99.0032 74.5148 100.174 78.0651 102.587C81.5292 104.941 81.7852 108.079 81.9551 110.155C82.0208 110.966 82.0888 111.806 82.3312 112.142C82.5329 112.416 83.1808 112.581 84.1233 112.599Z" fill="#454068"/>
<path d="M66.1124 46.6935C64.7616 46.969 63.3997 47.1374 62.0757 47.2284C63.7294 45.8428 65.171 44.2879 66.3752 42.5814C69.3946 38.3023 70.7352 33.2092 70.0532 28.6077C69.594 25.509 68.2708 22.8354 66.2266 20.8763C63.9995 18.7418 61.0818 17.6138 57.7887 17.6138C53.3032 17.6138 50.7157 19.543 49.3352 21.1613C45.7408 25.3744 46.5995 31.5288 46.7091 32.2166C47.0048 34.0699 48.7475 35.3416 50.6019 35.0462C52.4554 34.7505 53.7196 33.0171 53.424 31.1636C53.2815 30.2038 53.1766 27.1142 54.5167 25.5604C54.7621 25.2761 55.5081 24.4109 57.7889 24.4109C62.0954 24.4109 63.0986 28.0429 63.3302 29.6044C64.0482 34.4499 60.8439 42.9534 49.0733 46.5202C47.6 46.9668 46.6106 48.3481 46.6622 49.8867C46.7141 51.4255 47.7939 52.7373 49.294 53.0837C49.5516 53.1433 53.8515 54.1155 59.4263 54.1152C61.9339 54.1152 64.7004 53.9184 67.4711 53.3533C69.3101 52.9784 70.4968 51.1833 70.1219 49.3443C69.7469 47.5053 67.9518 46.3174 66.1124 46.6935Z" fill="#E5EAF9"/>
</svg>
