<svg width="21" height="21" viewBox="0 0 21 21" fill="none" xmlns="http://www.w3.org/2000/svg">
<g clip-path="url(#clip0_32_5)">
<path d="M17.937 3.12231C15.8986 1.0594 13.099 -0.0702845 10.2011 0.00339084C4.42984 0.1753 -0.0889153 4.96419 0.0829937 10.7354C0.107552 11.9388 0.353136 13.1176 0.795188 14.2227C1.16356 15.1559 1.65473 16.0155 2.26869 16.8014L1.40915 18.8397C1.06533 19.6256 1.43371 20.5342 2.21958 20.8781C2.48972 21.0008 2.80898 21.0254 3.10368 20.9763L7.08215 20.2887C8.50654 20.7798 10.0046 20.9517 11.5027 20.8044C16.6354 20.2887 20.6384 16.0892 20.9085 10.9319C21.0559 8.00944 19.9753 5.18522 17.937 3.12231ZM9.73446 14.5911H7.00847C6.59098 14.5911 6.2226 14.2473 6.2226 13.8052C6.2226 13.3877 6.56642 13.0194 7.00847 13.0194H9.73446C10.152 13.0194 10.5203 13.3632 10.5203 13.8052C10.5203 14.2473 10.1765 14.5911 9.73446 14.5911ZM13.9831 11.3985H7.00847C6.59098 11.3985 6.2226 11.0547 6.2226 10.6126C6.2226 10.1706 6.56642 9.82676 7.00847 9.82676H13.9831C14.4006 9.82676 14.7689 10.1706 14.7689 10.6126C14.7689 11.0547 14.4006 11.3985 13.9831 11.3985ZM13.9831 8.18135H7.00847C6.59098 8.18135 6.2226 7.83753 6.2226 7.39548C6.2226 6.97799 6.56642 6.60961 7.00847 6.60961H13.9831C14.4006 6.60961 14.7689 6.95343 14.7689 7.39548C14.7689 7.81297 14.4006 8.18135 13.9831 8.18135Z" fill="white"/>
</g>
<defs>
<clipPath id="clip0_32_5">
<rect width="21" height="21" fill="white"/>
</clipPath>
</defs>
</svg>
