<svg width="23" height="23" viewBox="0 0 23 23" fill="none" xmlns="http://www.w3.org/2000/svg">
<path d="M13.9707 23H5.39062C3.40897 23 1.79688 21.3879 1.79688 19.4062V7.23242C1.79688 5.25077 3.40897 3.63867 5.39062 3.63867H13.9707C15.9524 3.63867 17.5645 5.25077 17.5645 7.23242V19.4062C17.5645 21.3879 15.9524 23 13.9707 23ZM5.39062 5.43555C4.39989 5.43555 3.59375 6.24168 3.59375 7.23242V19.4062C3.59375 20.397 4.39989 21.2031 5.39062 21.2031H13.9707C14.9614 21.2031 15.7676 20.397 15.7676 19.4062V7.23242C15.7676 6.24168 14.9614 5.43555 13.9707 5.43555H5.39062ZM21.1582 17.1602V3.59375C21.1582 1.6121 19.5461 0 17.5645 0H7.5918C7.09555 0 6.69336 0.402191 6.69336 0.898438C6.69336 1.39468 7.09555 1.79688 7.5918 1.79688H17.5645C18.5552 1.79688 19.3613 2.60301 19.3613 3.59375V17.1602C19.3613 17.6564 19.7635 18.0586 20.2598 18.0586C20.756 18.0586 21.1582 17.6564 21.1582 17.1602Z" fill="white"/>
</svg>
