<svg width="25" height="13" viewBox="0 0 25 13" fill="none" xmlns="http://www.w3.org/2000/svg">
<path fill-rule="evenodd" clip-rule="evenodd" d="M22.465 1.11915C22.8898 0.694414 23.5285 0.567483 24.0834 0.797289C24.6381 1.02709 25 1.56849 25 2.16915V10.4635C25 11.0642 24.6381 11.6056 24.0834 11.8354C23.8997 11.9115 23.7067 11.9487 23.5155 11.9487C23.1289 11.9487 22.7493 11.7977 22.465 11.5135L19.636 8.68422V10.4087C19.636 11.6368 18.6402 12.6327 17.4119 12.6327H5.57746C6.87292 11.6553 7.71029 10.103 7.71029 8.35515C7.71029 5.61583 5.6535 3.3569 3 3.03843V2.22396C3 0.995897 3.99584 0 5.22407 0H17.4119C18.6402 0 19.636 0.995897 19.636 2.22396V3.94844L22.465 1.11915ZM10.4213 9.22149L13.4527 6.89252C13.6317 6.75498 13.7366 6.54204 13.7366 6.3163C13.7366 6.09061 13.6317 5.87767 13.4526 5.74014L10.4213 3.41122C10.2019 3.24254 9.90585 3.21332 9.65754 3.33569C9.40933 3.4579 9.25219 3.71045 9.25219 3.98732V8.64533C9.25219 8.92215 9.40933 9.17475 9.65754 9.29701C9.75948 9.34727 9.86927 9.37188 9.97863 9.37188C10.1357 9.37188 10.292 9.32102 10.4213 9.22149Z" fill="white" fill-opacity="0.5"/>
<path d="M2.58448 10.9839C2.58455 10.984 2.58461 10.984 2.58468 10.9841C2.59287 10.9922 2.60149 11 2.61044 11.0074C2.61455 11.0107 2.61888 11.0137 2.6231 11.0168C2.62814 11.0206 2.63307 11.0245 2.6383 11.028C2.64335 11.0314 2.64859 11.0343 2.65377 11.0374C2.65852 11.0402 2.66315 11.0432 2.66804 11.0458C2.67332 11.0486 2.67875 11.051 2.68415 11.0536C2.68923 11.056 2.69425 11.0585 2.69947 11.0607C2.7047 11.0628 2.71005 11.0646 2.71536 11.0665C2.72096 11.0685 2.72648 11.0707 2.73219 11.0724C2.73751 11.074 2.74291 11.0752 2.74829 11.0765C2.75412 11.078 2.75988 11.0796 2.76583 11.0808C2.77206 11.082 2.77834 11.0828 2.7846 11.0837C2.78977 11.0844 2.79487 11.0854 2.8001 11.0859C2.82336 11.0882 2.8468 11.0882 2.87005 11.0859C2.87529 11.0854 2.88039 11.0844 2.88555 11.0837C2.89181 11.0828 2.89809 11.082 2.90432 11.0808C2.91027 11.0796 2.91603 11.078 2.92187 11.0765C2.92723 11.0752 2.93265 11.074 2.93796 11.0724C2.94368 11.0707 2.94921 11.0685 2.95479 11.0665C2.96011 11.0646 2.96545 11.0628 2.97069 11.0607C2.9759 11.0585 2.98092 11.056 2.986 11.0536C2.9914 11.051 2.99683 11.0486 3.00212 11.0458C3.007 11.0432 3.01164 11.0402 3.01639 11.0374C3.02157 11.0343 3.0268 11.0314 3.03185 11.028C3.03708 11.0245 3.04202 11.0206 3.04705 11.0168C3.05127 11.0137 3.05561 11.0107 3.05971 11.0074C3.06866 11 3.07729 10.9923 3.08547 10.9841C3.08554 10.984 3.08561 10.984 3.08567 10.9839L5.56636 8.5032C5.70475 8.36481 5.70475 8.14042 5.56636 8.00203C5.42797 7.86363 5.20358 7.86363 5.06518 8.00203L3.18945 9.87774V4.35438C3.18945 4.15866 3.03079 4 2.83507 4C2.63935 4 2.48069 4.15866 2.48069 4.35438V9.87774L0.604972 8.00203C0.466579 7.86363 0.242187 7.86363 0.103795 8.00203C-0.0345982 8.14042 -0.0345982 8.36481 0.103795 8.5032L2.58448 10.9839Z" fill="white" fill-opacity="0.5"/>
<path d="M5.31575 11.7964H0.354379C0.158659 11.7964 0 11.955 0 12.1508C0 12.3465 0.158659 12.5052 0.354379 12.5052H5.31577C5.51149 12.5052 5.67015 12.3465 5.67015 12.1508C5.67015 11.9551 5.51147 11.7964 5.31575 11.7964Z" fill="white" fill-opacity="0.5"/>
</svg>
