<svg width="23" height="17" viewBox="0 0 23 17" fill="none" xmlns="http://www.w3.org/2000/svg">
<path fill-rule="evenodd" clip-rule="evenodd" d="M1.34006 0H19.7655C20.5056 0 21.1056 0.599984 21.1056 1.34002V7.45683C20.8989 7.43261 20.6887 7.42016 20.4755 7.42016C20.2348 7.42016 19.9978 7.43604 19.7655 7.46682V1.34002H1.34006V10.8064L6.263 5.08507C6.66733 4.61506 7.39698 4.61974 7.79533 5.09546L13.0653 11.3903L15.738 8.71793C16.101 8.35463 16.6757 8.32585 17.0724 8.64038C15.8804 9.62257 15.1204 11.1102 15.1204 12.7753C15.1204 14.1809 15.6619 15.46 16.5478 16.4154H1.34006C0.600021 16.4154 0 15.8154 0 15.0754V1.34002C0 0.599984 0.600021 0 1.34006 0ZM15.9129 3.01505C14.8951 3.01505 14.0704 3.83985 14.0704 4.85762C14.0704 5.87538 14.8952 6.70018 15.9129 6.70014C16.9307 6.70014 17.7554 5.87538 17.7554 4.85762C17.7554 3.83985 16.9307 3.01505 15.9129 3.01505Z" fill="white" fill-opacity="0.5"/>
<path d="M19.9099 15.0342C19.91 15.0342 19.9101 15.0343 19.9101 15.0344C19.9183 15.0425 19.9269 15.0503 19.9359 15.0577C19.94 15.061 19.9443 15.0639 19.9485 15.0671C19.9536 15.0709 19.9585 15.0748 19.9637 15.0783C19.9688 15.0817 19.974 15.0846 19.9792 15.0877C19.984 15.0905 19.9886 15.0935 19.9935 15.0961C19.9988 15.0989 20.0042 15.1013 20.0096 15.1039C20.0147 15.1063 20.0197 15.1088 20.0249 15.111C20.0301 15.1131 20.0355 15.1149 20.0408 15.1168C20.0464 15.1188 20.0519 15.1209 20.0576 15.1227C20.0629 15.1243 20.0683 15.1255 20.0737 15.1268C20.0796 15.1283 20.0853 15.1299 20.0913 15.1311C20.0975 15.1323 20.1038 15.1331 20.11 15.134C20.1152 15.1347 20.1203 15.1357 20.1255 15.1362C20.1488 15.1385 20.1722 15.1385 20.1955 15.1362C20.2007 15.1357 20.2058 15.1347 20.211 15.134C20.2173 15.1331 20.2235 15.1323 20.2298 15.1311C20.2357 15.1299 20.2415 15.1283 20.2473 15.1268C20.2527 15.1255 20.2581 15.1243 20.2634 15.1227C20.2691 15.1209 20.2746 15.1188 20.2802 15.1168C20.2855 15.1149 20.2909 15.1131 20.2961 15.111C20.3013 15.1088 20.3064 15.1063 20.3114 15.1039C20.3168 15.1013 20.3223 15.0989 20.3276 15.0961C20.3324 15.0935 20.3371 15.0905 20.3418 15.0877C20.347 15.0846 20.3522 15.0817 20.3573 15.0783C20.3625 15.0748 20.3675 15.0709 20.3725 15.0671C20.3767 15.064 20.381 15.061 20.3851 15.0577C20.3941 15.0503 20.4027 15.0426 20.4109 15.0344C20.411 15.0343 20.411 15.0342 20.4111 15.0342L22.8918 12.5535C23.0302 12.4151 23.0302 12.1907 22.8918 12.0523C22.7534 11.9139 22.529 11.9139 22.3906 12.0523L20.5149 13.928V8.40467C20.5149 8.20895 20.3562 8.05029 20.1605 8.05029C19.9648 8.05029 19.8061 8.20895 19.8061 8.40467V13.928L17.9304 12.0523C17.792 11.9139 17.5676 11.9139 17.4292 12.0523C17.2908 12.1907 17.2908 12.4151 17.4292 12.5535L19.9099 15.0342Z" fill="white" fill-opacity="0.5"/>
<path d="M22.6412 15.8467H17.6798C17.4841 15.8467 17.3254 16.0053 17.3254 16.2011C17.3254 16.3968 17.4841 16.5555 17.6798 16.5555H22.6412C22.8369 16.5555 22.9956 16.3968 22.9956 16.2011C22.9956 16.0054 22.8369 15.8467 22.6412 15.8467Z" fill="white" fill-opacity="0.5"/>
</svg>
