<svg width="22" height="14" viewBox="0 0 22 14" fill="none" xmlns="http://www.w3.org/2000/svg">
<path d="M21.7731 6.02544C19.9846 2.36522 15.7559 0 11 0C6.24413 0 2.01538 2.36522 0.226884 6.02544C-0.0756282 6.64456 -0.0756282 7.35467 0.226884 7.97456C2.01538 11.6348 6.24413 14 11 14C15.7559 14 19.9846 11.6348 21.7731 7.97456C22.0756 7.35544 22.0756 6.64456 21.7731 6.02544ZM11 10.1111C8.97775 10.1111 7.33318 8.71578 7.33318 7C7.33318 5.28422 8.97775 3.88889 11 3.88889C13.0223 3.88889 14.6668 5.28422 14.6668 7C14.6668 8.71578 13.0223 10.1111 11 10.1111Z" fill="white"/>
</svg>
