<svg width="18" height="18" viewBox="0 0 18 18" fill="none" xmlns="http://www.w3.org/2000/svg">
<g clip-path="url(#clip0_252_3145)">
<path d="M17.2624 0.207229C16.5577 -0.199715 15.6534 0.0426585 15.2466 0.747383L13.2352 4.23128H8.89736C8.70319 4.23128 8.54579 4.38871 8.54579 4.58285C8.54579 4.77699 8.70319 4.93442 8.89736 4.93442H12.8292L11.3695 7.46264H3.16421C2.97004 7.46264 2.81264 7.62008 2.81264 7.81422C2.81264 8.00839 2.97004 8.16579 3.16421 8.16579H10.9635L10.1516 9.57207H3.16421C2.97004 9.57207 2.81264 9.72951 2.81264 9.92365C2.81264 10.1178 2.97004 10.2752 3.16421 10.2752H10.0062L9.85472 11.6815H3.16421C2.97004 11.6815 2.81264 11.8389 2.81264 12.0331C2.81264 12.2272 2.97004 12.3846 3.16421 12.3846H9.77896L9.76026 12.5583C9.74535 12.6967 9.81348 12.8308 9.934 12.9004C9.9886 12.9319 10.0492 12.9475 10.1098 12.9475C10.1828 12.9475 10.2557 12.9248 10.3172 12.8798L12.562 11.2399C12.6016 11.211 12.6346 11.1742 12.6591 11.1318L15.3988 6.38648V13.2009C15.3988 13.9886 14.7579 14.6295 13.9702 14.6295H5.82248C5.69686 14.6295 5.58081 14.6965 5.51802 14.8053L4.28868 16.9346L3.05934 14.8053C2.99655 14.6965 2.8805 14.6295 2.75488 14.6295H2.13179C1.34402 14.6295 0.703143 13.9886 0.703143 13.2009V6.36307C0.703143 5.57534 1.34402 4.93442 2.13179 4.93442H5.73325C5.92742 4.93442 6.08482 4.77699 6.08482 4.58285C6.08482 4.38868 5.92742 4.23128 5.73325 4.23128H2.13179C0.956309 4.23128 0 5.18759 0 6.36307V13.2009C0 14.3764 0.956309 15.3327 2.13179 15.3327H2.55188L3.98422 17.8135C4.04701 17.9223 4.16306 17.9893 4.28868 17.9893C4.4143 17.9893 4.53035 17.9223 4.59314 17.8135L6.02548 15.3327H13.9702C15.1457 15.3327 16.102 14.3764 16.102 13.2009V6.36307C16.102 6.0617 16.0381 5.76399 15.9158 5.49103L17.8026 2.2231C18.2094 1.51841 17.9671 0.614103 17.2624 0.207229ZM16.9108 0.816151C17.2798 1.02917 17.4066 1.50259 17.1936 1.87153L16.9927 2.21948L15.6546 1.44691L15.8555 1.09895C16.0685 0.730051 16.5419 0.603239 16.9108 0.816151ZM10.6993 10.4063L11.7113 10.9906L10.5445 11.843L10.6993 10.4063ZM12.2259 10.4758L10.8878 9.70321L15.303 2.05583L16.6411 2.8284L12.2259 10.4758Z" fill="white"/>
<path d="M7.31508 4.93506C7.40754 4.93506 7.49824 4.89745 7.56398 4.83206C7.62937 4.76666 7.66699 4.67596 7.66699 4.5835C7.66699 4.49104 7.62937 4.40033 7.56398 4.33494C7.49824 4.26959 7.40789 4.23193 7.31508 4.23193C7.22262 4.23193 7.13191 4.26955 7.06652 4.33494C7.00113 4.40033 6.96387 4.49104 6.96387 4.5835C6.96387 4.67596 7.0011 4.76666 7.06652 4.83206C7.13227 4.89745 7.22262 4.93506 7.31508 4.93506Z" fill="white"/>
</g>
<defs>
<clipPath id="clip0_252_3145">
<rect width="18" height="18" fill="white"/>
</clipPath>
</defs>
</svg>
