<svg width="14" height="14" viewBox="0 0 14 14" fill="none" xmlns="http://www.w3.org/2000/svg">
<path d="M10.7451 5.45768C11.4276 4.89161 11.8631 4.03753 11.8631 3.08361C11.863 1.38332 10.4797 0 8.7794 0C7.07908 0 5.69579 1.38332 5.69579 3.08361C5.69579 3.30586 5.71963 3.52262 5.76453 3.73166C5.58893 3.70049 5.40829 3.68416 5.22389 3.68416C3.52357 3.68416 2.14028 5.06748 2.14028 6.76777C2.14028 7.72161 2.57567 8.57561 3.25806 9.14171C1.34911 9.91996 0 11.7959 0 13.9813H1.094C1.094 11.704 2.94664 9.85141 5.22386 9.85141C6.92418 9.85141 8.30747 8.46809 8.30747 6.7678C8.30747 6.54555 8.28362 6.32877 8.23873 6.11973C8.41433 6.1509 8.59496 6.16722 8.77937 6.16722C10.1213 6.16722 11.3154 6.811 12.0702 7.80555L12.8115 6.98015C12.2636 6.31521 11.5546 5.78786 10.7451 5.45768ZM5.22389 8.75739C4.12683 8.75739 3.23427 7.86486 3.23427 6.76777C3.23427 5.67069 4.12683 4.77816 5.22389 4.77816C6.32095 4.77816 7.2135 5.67072 7.2135 6.76777C7.2135 7.86483 6.32095 8.75739 5.22389 8.75739ZM8.7794 5.0732C7.68234 5.0732 6.78978 4.18067 6.78978 3.08358C6.78978 1.9865 7.68234 1.094 8.7794 1.094C9.87645 1.094 10.769 1.98652 10.769 3.08361C10.769 4.18073 9.87648 5.0732 8.7794 5.0732Z" fill="black"/>
<rect x="10" y="9" width="1" height="5" fill="black"/>
<rect x="13" y="11" width="1" height="5" transform="rotate(90 13 11)" fill="black"/>
</svg>
