<svg width="28" height="28" viewBox="0 0 28 28" fill="none" xmlns="http://www.w3.org/2000/svg">
<g clip-path="url(#clip0_252_614)">
<path d="M22.399 15.0536H25.4224C25.7031 15.0536 25.9772 15.0818 26.2427 15.1343V4.77426C26.2427 2.10739 24.0708 0 21.4685 0H4.77426C2.1734 0 0 2.10611 0 4.77426V23.6652C0 24.3511 0.804291 24.7465 1.3454 24.2953L6.38925 20.0921H8.46375V19.2718C8.46375 17.9149 9.56775 16.8109 10.9247 16.8109H14.175V13.1214C14.175 11.7644 15.279 10.6604 16.6359 10.6604C19.3837 10.6604 21.7039 12.5243 22.399 15.0536ZM12.3011 15.6989H5.21347C4.76059 15.6989 4.39316 15.3317 4.39316 14.8786C4.39316 14.4255 4.76059 14.0583 5.21347 14.0583H12.3011C12.7542 14.0583 13.1214 14.4255 13.1214 14.8786C13.1214 15.3317 12.7542 15.6989 12.3011 15.6989ZM12.3011 11.3056H5.21347C4.76059 11.3056 4.39316 10.9384 4.39316 10.4853C4.39316 10.0324 4.76059 9.66495 5.21347 9.66495H12.3011C12.7542 9.66495 13.1214 10.0324 13.1214 10.4853C13.1214 10.9384 12.7542 11.3056 12.3011 11.3056ZM5.21347 6.91241C4.76059 6.91241 4.39316 6.5452 4.39316 6.0921C4.39316 5.63901 4.76059 5.27179 5.21347 5.27179H21.0291C21.4821 5.27179 21.8494 5.63901 21.8494 6.0921C21.8494 6.5452 21.4821 6.91241 21.0291 6.91241H5.21347Z" fill="white"/>
<path d="M10.1045 19.2717V27.1796C10.1045 27.6327 10.4719 27.9999 10.9248 27.9999H14.1751V18.4514H10.9248C10.4717 18.4514 10.1045 18.8188 10.1045 19.2717Z" fill="white"/>
<path d="M25.4225 16.6942H20.971V16.635C20.971 14.2375 19.0305 12.301 16.6368 12.301H16.636C16.1829 12.301 15.8157 12.6682 15.8157 13.1213V28H25.4225C26.8484 28 28.0001 26.8458 28.0001 25.4224V19.2718C28.0001 17.8505 26.8438 16.6942 25.4225 16.6942Z" fill="white"/>
</g>
<defs>
<clipPath id="clip0_252_614">
<rect width="28" height="28" fill="white"/>
</clipPath>
</defs>
</svg>
