<svg width="20" height="20" viewBox="0 0 20 20" fill="none" xmlns="http://www.w3.org/2000/svg">
<path d="M19.0909 5.45484H16.329L17.2409 2.05391C17.3709 1.56934 17.0836 1.0703 16.5982 0.940292C16.1128 0.810287 15.6136 1.09843 15.4846 1.58299L14.4474 5.45484H7.99089L8.90275 2.05391C9.03276 1.56934 8.74545 1.0703 8.26005 0.940292C7.77449 0.811286 7.27644 1.09843 7.14727 1.58299L6.10906 5.45484H2.72727C2.2254 5.45484 1.81824 5.86117 1.81824 6.36388C1.81824 6.86675 2.2254 7.27308 2.72727 7.27308H5.62084L4.15816 12.7276H0.909035C0.407326 12.7276 0 13.134 0 13.6367C0 14.1394 0.407326 14.5457 0.909035 14.5457H3.67093L2.75907 17.9466C2.62906 18.4312 2.91637 18.9303 3.40177 19.0603C3.48 19.0812 3.55907 19.0912 3.63631 19.0912C4.03731 19.0912 4.40552 18.8239 4.51372 18.4176L5.55276 14.5457H12.0091L11.0972 17.9466C10.9674 18.4312 11.2545 18.9303 11.7401 19.0603C11.8181 19.0812 11.8972 19.0912 11.9754 19.0912C12.3764 19.0912 12.7445 18.8239 12.8527 18.4176L13.8909 14.5457H17.2727C17.7745 14.5457 18.1819 14.1394 18.1819 13.6367C18.1819 13.134 17.7745 12.7276 17.2727 12.7276H14.3791L15.8418 7.27308H19.0909C19.5928 7.27308 19.9999 6.86675 19.9999 6.36388C19.9999 5.86117 19.5928 5.45484 19.0909 5.45484ZM12.4963 12.7276H6.03998L7.50266 7.27308H13.9591L12.4963 12.7276Z" fill="white"/>
</svg>
