<svg width="32" height="32" viewBox="0 0 32 32" fill="none" xmlns="http://www.w3.org/2000/svg">
<rect width="32" height="32" rx="16" fill="#1A1A1A"/>
<path d="M14.9849 20.9846C16.3161 20.9843 17.609 20.5387 18.6576 19.7186L21.9546 23.0156L23.0151 21.9551L19.7181 18.6581C20.5386 17.6094 20.9845 16.3162 20.9849 14.9846C20.9849 11.6764 18.2931 8.98462 14.9849 8.98462C11.6766 8.98462 8.98486 11.6764 8.98486 14.9846C8.98486 18.2929 11.6766 20.9846 14.9849 20.9846ZM14.9849 10.4846C17.4666 10.4846 19.4849 12.5029 19.4849 14.9846C19.4849 17.4664 17.4666 19.4846 14.9849 19.4846C12.5031 19.4846 10.4849 17.4664 10.4849 14.9846C10.4849 12.5029 12.5031 10.4846 14.9849 10.4846Z" fill="#B3B3B3"/>
</svg>
