<svg width="14" height="14" viewBox="0 0 14 14" fill="none" xmlns="http://www.w3.org/2000/svg">
<path d="M12.9098 5.93852C13.2158 5.93852 13.474 6.04372 13.6844 6.2541C13.8948 6.44536 14 6.69399 14 7C14 7.30601 13.8948 7.56421 13.6844 7.77459C13.474 7.96585 13.2158 8.06148 12.9098 8.06148H8.06148V12.9098C8.06148 13.2158 7.95628 13.474 7.7459 13.6844C7.55465 13.8948 7.30601 14 7 14C6.69399 14 6.43579 13.8948 6.22541 13.6844C6.03415 13.474 5.93852 13.2158 5.93852 12.9098V8.06148H1.09016C0.784153 8.06148 0.525956 7.95628 0.315574 7.7459C0.105191 7.53552 0 7.28689 0 7C0 6.69399 0.105191 6.44536 0.315574 6.2541C0.525956 6.04372 0.784153 5.93852 1.09016 5.93852H5.93852V1.09016C5.93852 0.784153 6.03415 0.525957 6.22541 0.315575C6.43579 0.105192 6.69399 0 7 0C7.30601 0 7.55465 0.105192 7.7459 0.315575C7.95628 0.525957 8.06148 0.784153 8.06148 1.09016V5.93852H12.9098Z" fill="#4D4D4D"/>
</svg>
