<svg width="12" height="13" viewBox="0 0 12 13" fill="none" xmlns="http://www.w3.org/2000/svg">
<path d="M5.13177 10.763C6.27036 10.7628 7.37615 10.3816 8.27305 9.68024L11.093 12.5L12 11.593L9.18009 8.77325C9.88186 7.87631 10.2633 6.77033 10.2635 5.63149C10.2635 2.80212 7.9613 0.5 5.13177 0.5C2.30224 0.5 0 2.80212 0 5.63149C0 8.46087 2.30224 10.763 5.13177 10.763ZM5.13177 1.78287C7.2544 1.78287 8.9806 3.50898 8.9806 5.63149C8.9806 7.75401 7.2544 9.48012 5.13177 9.48012C3.00914 9.48012 1.28294 7.75401 1.28294 5.63149C1.28294 3.50898 3.00914 1.78287 5.13177 1.78287Z" fill="#808080"/>
</svg>
