<svg width="32" height="32" viewBox="0 0 32 32" fill="none" xmlns="http://www.w3.org/2000/svg">
<rect width="32" height="32" rx="16" fill="#1A1A1A"/>
<path d="M16 19C17.2533 19 18.25 18.0017 18.25 16.75C18.25 15.4983 17.2533 14.5 16 14.5C14.7467 14.5 13.75 15.4983 13.75 16.75C13.75 18.0017 14.7467 19 16 19Z" fill="#B3B3B3"/>
<path d="M22.6127 15.3895C22.436 14.5258 22.0907 13.7054 21.5965 12.9753C21.1109 12.257 20.4923 11.6383 19.774 11.1528C19.0438 10.6587 18.2234 10.3134 17.3597 10.1365C16.9061 10.0445 16.4442 9.99926 15.9813 10.0015V8.5L13 10.75L15.9813 13V11.5015C16.3443 11.5 16.7072 11.5345 17.0575 11.6065C17.7288 11.7441 18.3664 12.0124 18.934 12.3963C19.4938 12.7737 19.9756 13.2555 20.353 13.8152C20.939 14.6817 21.2515 15.704 21.25 16.75C21.2499 17.4519 21.1096 18.1467 20.8375 18.7938C20.7052 19.1054 20.5434 19.4038 20.3545 19.6848C20.1648 19.964 19.9494 20.2249 19.711 20.464C18.985 21.1886 18.0633 21.6857 17.059 21.8942C16.3605 22.0353 15.641 22.0353 14.9425 21.8942C14.2709 21.7566 13.633 21.4879 13.0652 21.1038C12.5061 20.7267 12.0248 20.2454 11.6478 19.6863C11.0624 18.8189 10.7498 17.7964 10.75 16.75H9.25C9.2508 18.0953 9.65266 19.4098 10.4043 20.5255C10.8901 21.2426 11.5081 21.8606 12.2253 22.3465C13.3395 23.1006 14.6546 23.5025 16 23.5C16.457 23.5 16.9127 23.454 17.3605 23.3627C18.2235 23.1845 19.0434 22.8393 19.774 22.3465C20.1327 22.1048 20.467 21.8287 20.7723 21.5223C21.0779 21.2158 21.3541 20.8813 21.5972 20.5233C22.3507 19.4093 22.7523 18.0948 22.75 16.75C22.75 16.293 22.704 15.8373 22.6127 15.3895V15.3895Z" fill="#B3B3B3"/>
</svg>
