<svg width="32" height="32" viewBox="0 0 32 32" fill="none" xmlns="http://www.w3.org/2000/svg">
<rect width="32" height="32" rx="16" fill="white" fill-opacity="0.1"/>
<path d="M16.984 8.99295C16.9838 8.77572 17.0543 8.56433 17.1849 8.39075C17.3155 8.21716 17.4991 8.09082 17.7078 8.03083C17.9166 7.97084 18.1393 7.98047 18.3421 8.05825C18.5449 8.13603 18.7169 8.27774 18.832 8.46195L21.52 11.1499C21.6129 11.2429 21.6865 11.3531 21.7367 11.4745C21.7869 11.5959 21.8128 11.726 21.8127 11.8573C21.8127 11.9887 21.7867 12.1187 21.7364 12.24C21.6861 12.3614 21.6124 12.4716 21.5195 12.5644C21.4266 12.6573 21.3163 12.7309 21.1949 12.7812C21.0736 12.8314 20.9435 12.8572 20.8122 12.8572C20.6808 12.8571 20.5508 12.8312 20.4294 12.7809C20.3081 12.7306 20.1979 12.6569 20.105 12.5639L18.985 11.4429V18.9929C18.985 19.2582 18.8797 19.5125 18.6921 19.7001C18.5046 19.8876 18.2502 19.9929 17.985 19.9929C17.7198 19.9929 17.4654 19.8876 17.2779 19.7001C17.0904 19.5125 16.985 19.2582 16.985 18.9929V8.99295H16.984Z" fill="#2CF2A0"/>
<path d="M15.016 23.0068C15.0162 23.2241 14.9457 23.4355 14.8151 23.609C14.6845 23.7826 14.501 23.909 14.2922 23.969C14.0834 24.0289 13.8608 24.0193 13.6579 23.9415C13.4551 23.8638 13.2831 23.722 13.168 23.5378L10.48 20.8498C10.2925 20.6622 10.1872 20.4078 10.1873 20.1425C10.1874 19.8772 10.2929 19.6228 10.4805 19.4353C10.6682 19.2478 10.9226 19.1425 11.1879 19.1426C11.4531 19.1427 11.7075 19.2482 11.895 19.4358L13.015 20.5568V13.0068C13.015 12.7416 13.1204 12.4873 13.3079 12.2997C13.4954 12.1122 13.7498 12.0068 14.015 12.0068C14.2802 12.0068 14.5346 12.1122 14.7221 12.2997C14.9097 12.4873 15.015 12.7416 15.015 13.0068V23.0068H15.016Z" fill="#2CF2A0"/>
</svg>
