<svg width="32" height="32" viewBox="0 0 32 32" fill="none" xmlns="http://www.w3.org/2000/svg">
<rect width="32" height="32" rx="16" fill="white" fill-opacity="0.1"/>
<path d="M15.5 20.9999C15.5 21.5833 15.6 22.1333 15.7833 22.6666H15.5C12.7417 22.6666 10.5 20.4249 10.5 17.6666C10.5 14.3333 15.5 8.70825 15.5 8.70825C15.5 8.70825 19.0917 12.7499 20.1833 15.9999C19.6083 16.0499 19.0667 16.1833 18.5583 16.3916C18 14.8999 16.75 12.9416 15.5 11.3249C13.8333 13.4666 12.1667 16.1916 12.1667 17.6666C12.1667 19.5083 13.6583 20.9999 15.5 20.9999ZM21.3333 20.1666V17.6666H19.6667V20.1666H17.1667V21.8333H19.6667V24.3333H21.3333V21.8333H23.8333V20.1666H21.3333Z" fill="#2CF2A0"/>
</svg>
