<svg width="32" height="32" viewBox="0 0 32 32" fill="none" xmlns="http://www.w3.org/2000/svg">
<rect width="32" height="32" rx="16" fill="#1A1A1A"/>
<path d="M15.9998 19C17.6543 19 18.9998 17.6545 18.9998 16C18.9998 14.3455 17.6543 13 15.9998 13C14.3453 13 12.9998 14.3455 12.9998 16C12.9998 17.6545 14.3453 19 15.9998 19ZM15.9998 14.5C16.8128 14.5 17.4998 15.187 17.4998 16C17.4998 16.813 16.8128 17.5 15.9998 17.5C15.1868 17.5 14.4998 16.813 14.4998 16C14.4998 15.187 15.1868 14.5 15.9998 14.5Z" fill="#B3B3B3"/>
<path d="M9.13373 19.102L9.88373 20.3995C10.282 21.0872 11.2405 21.3453 11.9312 20.947L12.328 20.7175C12.7619 21.0588 13.2403 21.3394 13.75 21.5515V22C13.75 22.8273 14.4227 23.5 15.25 23.5H16.75C17.5772 23.5 18.25 22.8273 18.25 22V21.5515C18.7595 21.3394 19.2379 21.0591 19.672 20.7183L20.0687 20.9478C20.761 21.3453 21.7172 21.0887 22.117 20.3995L22.8662 19.1027C23.065 18.7583 23.1189 18.349 23.0161 17.9648C22.9133 17.5806 22.6622 17.2529 22.318 17.0537L21.9392 16.8347C22.0198 16.2817 22.0198 15.7198 21.9392 15.1667L22.318 14.9478C22.6621 14.7484 22.913 14.4207 23.0158 14.0366C23.1186 13.6525 23.0648 13.2433 22.8662 12.8987L22.117 11.602C21.7187 10.912 20.761 10.6532 20.0687 11.053L19.672 11.2825C19.2381 10.9412 18.7597 10.6606 18.25 10.4485V10C18.25 9.17275 17.5772 8.5 16.75 8.5H15.25C14.4227 8.5 13.75 9.17275 13.75 10V10.4485C13.2405 10.6606 12.7621 10.9409 12.328 11.2818L11.9312 11.0522C11.2382 10.654 10.2812 10.912 9.88298 11.6013L9.13373 12.898C8.93497 13.2425 8.88107 13.6518 8.98386 14.0359C9.08666 14.4201 9.33775 14.7478 9.68198 14.947L10.0607 15.166C9.97991 15.7188 9.97991 16.2804 10.0607 16.8333L9.68198 17.0522C9.33785 17.2517 9.08688 17.5795 8.9841 17.9638C8.88133 18.348 8.93514 18.7574 9.13373 19.102V19.102ZM11.6282 17.0335C11.5435 16.6955 11.5005 16.3484 11.5 16C11.5 15.6535 11.5435 15.3055 11.6275 14.9665C11.667 14.8085 11.654 14.6419 11.5904 14.492C11.5268 14.342 11.4161 14.2169 11.275 14.1355L10.4327 13.648L11.1812 12.3513L12.04 12.8477C12.18 12.9288 12.3426 12.9622 12.5032 12.943C12.6639 12.9238 12.814 12.853 12.931 12.7413C13.4384 12.2587 14.0502 11.8996 14.719 11.692C14.8726 11.6451 15.0071 11.5501 15.1027 11.421C15.1983 11.292 15.2499 11.1356 15.25 10.975V10H16.75V10.975C16.7501 11.1356 16.8017 11.292 16.8973 11.421C16.9929 11.5501 17.1274 11.6451 17.281 11.692C17.9496 11.8999 18.5614 12.2589 19.069 12.7413C19.1861 12.8528 19.3362 12.9234 19.4968 12.9426C19.6574 12.9618 19.8199 12.9285 19.96 12.8477L20.818 12.352L21.568 13.6487L20.725 14.1355C20.584 14.217 20.4733 14.3421 20.4097 14.492C20.3461 14.642 20.3331 14.8085 20.3725 14.9665C20.4565 15.3055 20.5 15.6535 20.5 16C20.5 16.3457 20.4565 16.6938 20.3717 17.0335C20.3324 17.1916 20.3456 17.3582 20.4093 17.5081C20.473 17.658 20.5838 17.7831 20.725 17.8645L21.5672 18.3513L20.8187 19.648L19.96 19.1522C19.82 19.0711 19.6574 19.0376 19.4967 19.0568C19.336 19.076 19.1859 19.1469 19.069 19.2587C18.5616 19.7413 17.9497 20.1004 17.281 20.308C17.1274 20.3549 16.9929 20.4499 16.8973 20.579C16.8017 20.708 16.7501 20.8644 16.75 21.025L16.7515 22H15.25V21.025C15.2499 20.8644 15.1983 20.708 15.1027 20.579C15.0071 20.4499 14.8726 20.3549 14.719 20.308C14.0504 20.1001 13.4386 19.7411 12.931 19.2587C12.8142 19.1466 12.664 19.0755 12.5032 19.0564C12.3424 19.0374 12.1798 19.0713 12.04 19.153L11.182 19.6495L10.432 18.3528L11.275 17.8645C11.4161 17.7831 11.5269 17.658 11.5907 17.5081C11.6544 17.3582 11.6676 17.1916 11.6282 17.0335V17.0335Z" fill="#B3B3B3"/>
</svg>
