<svg width="24" height="14" viewBox="0 0 24 14" fill="none" xmlns="http://www.w3.org/2000/svg">
<path d="M13.5375 6.75099C13.5375 10.4785 10.5075 13.501 6.768 13.501C5.8804 13.5022 5.00125 13.3285 4.18076 12.9899C3.36026 12.6514 2.61449 12.1545 1.98603 11.5277C1.35756 10.9009 0.858704 10.1564 0.517941 9.33686C0.177178 8.51727 0.00118111 7.63859 0 6.75099C0 3.02199 3.03 0.000984728 6.768 0.000984728C7.65573 -0.000395135 8.53504 0.173115 9.3557 0.511606C10.1764 0.850097 10.9223 1.34694 11.5509 1.97375C12.1796 2.60057 12.6786 3.34508 13.0194 4.16477C13.3603 4.98445 13.5363 5.86325 13.5375 6.75099ZM20.9625 6.75099C20.9625 10.261 19.4475 13.105 17.5785 13.105C15.7095 13.105 14.1945 10.2595 14.1945 6.75099C14.1945 3.24099 15.7095 0.396985 17.5785 0.396985C19.4475 0.396985 20.9625 3.24249 20.9625 6.75099ZM24 6.75099C24 9.89499 23.4675 12.4435 22.809 12.4435C22.152 12.4435 21.6195 9.89349 21.6195 6.75099C21.6195 3.60699 22.152 1.05848 22.8105 1.05848C23.4675 1.05848 24 3.60699 24 6.75099Z" fill="white" fill-opacity="0.25"/>
</svg>
