<svg width="24" height="24" viewBox="0 0 24 24" fill="none" xmlns="http://www.w3.org/2000/svg">
<path d="M12 0.000976562C18.6278 0.000976562 24 5.37323 24 12.001C24 18.6287 18.6278 24.001 12 24.001C5.37225 24.001 0 18.6287 0 12.001C0 5.37323 5.37225 0.000976562 12 0.000976562ZM18.5295 14.6387H7.755C7.63851 14.6386 7.52667 14.6844 7.44375 14.7662L5.31525 16.8775C5.28435 16.908 5.26326 16.9471 5.25469 16.9896C5.24611 17.0322 5.25043 17.0764 5.26711 17.1165C5.28378 17.1566 5.31204 17.1908 5.34827 17.2148C5.38451 17.2387 5.42706 17.2513 5.4705 17.251H16.245C16.3615 17.2511 16.4733 17.2053 16.5563 17.1235L18.6847 15.0115C18.7154 14.9809 18.7362 14.9419 18.7447 14.8995C18.7531 14.857 18.7487 14.813 18.7321 14.7731C18.7154 14.7331 18.6873 14.699 18.6512 14.6751C18.6151 14.6512 18.5728 14.6385 18.5295 14.6387ZM16.245 10.6697H5.4705L5.4195 10.675C5.38146 10.6837 5.34646 10.7025 5.31814 10.7294C5.28982 10.7562 5.26923 10.7902 5.25851 10.8277C5.24779 10.8653 5.24732 10.905 5.25717 10.9428C5.26702 10.9805 5.28682 11.015 5.3145 11.0425L7.4445 13.1545L7.497 13.1995C7.572 13.252 7.662 13.282 7.755 13.282H18.5295L18.5805 13.2767C18.6185 13.268 18.6535 13.2492 18.6819 13.2223C18.7102 13.1955 18.7308 13.1615 18.7415 13.124C18.7522 13.0864 18.7527 13.0467 18.7428 13.009C18.733 12.9712 18.7132 12.9367 18.6855 12.9092L16.5555 10.7972L16.503 10.7522C16.4277 10.6984 16.3375 10.6696 16.245 10.6697ZM18.5295 6.75098H7.755C7.63851 6.75085 7.52667 6.79667 7.44375 6.87848L5.31525 8.99048C5.28461 9.02105 5.26375 9.06003 5.25533 9.10249C5.2469 9.14494 5.25129 9.18894 5.26793 9.22889C5.28457 9.26885 5.31271 9.30295 5.34878 9.32687C5.38485 9.35079 5.42722 9.36344 5.4705 9.36323H16.245C16.3615 9.36335 16.4733 9.31754 16.5563 9.23573L18.6847 7.12448C18.7157 7.09395 18.7367 7.05489 18.7453 7.01231C18.7539 6.96973 18.7496 6.92556 18.7329 6.88545C18.7162 6.84534 18.688 6.81112 18.6517 6.78716C18.6155 6.76321 18.5729 6.75061 18.5295 6.75098Z" fill="white" fill-opacity="0.25"/>
</svg>
