<svg width="22" height="22" viewBox="0 0 22 22" fill="none" xmlns="http://www.w3.org/2000/svg">
<path d="M22 11.001C22 13.9184 20.8411 16.7163 18.7782 18.7792C16.7153 20.8421 13.9174 22.001 11 22.001C8.08262 22.001 5.28473 20.8421 3.22183 18.7792C1.15893 16.7163 0 13.9184 0 11.001C0 8.0836 1.15893 5.2857 3.22183 3.2228C5.28473 1.1599 8.08262 0.000976563 11 0.000976562C13.9174 0.000976563 16.7153 1.1599 18.7782 3.2228C20.8411 5.2857 22 8.0836 22 11.001ZM11.3946 8.12173C10.3249 8.56723 8.18538 9.48848 4.97888 10.8855C4.45913 11.0917 4.1855 11.2952 4.16075 11.4932C4.1195 11.8274 4.53888 11.9594 5.1095 12.1395L5.35012 12.2151C5.91113 12.398 6.66737 12.6111 7.05925 12.6194C7.41675 12.6276 7.81412 12.4819 8.25275 12.1794C11.2489 10.1567 12.7958 9.1351 12.892 9.1131C12.9608 9.0966 13.057 9.07735 13.1202 9.1351C13.1849 9.19148 13.178 9.3001 13.1711 9.32898C13.1299 9.50635 11.484 11.0354 10.6329 11.8274C10.3675 12.0749 10.1791 12.2495 10.1406 12.2894C10.0558 12.376 9.96967 12.4613 9.88212 12.5451C9.35962 13.0484 8.96912 13.4251 9.90275 14.0411C10.3524 14.3381 10.7126 14.5815 11.0715 14.8262C11.462 15.093 11.8525 15.3584 12.3585 15.6911C12.4864 15.7736 12.6101 15.863 12.7298 15.9482C13.1849 16.2727 13.596 16.5642 14.1006 16.5175C14.3949 16.49 14.6988 16.215 14.8527 15.39C15.2171 13.4416 15.9335 9.22173 16.0985 7.48235C16.1086 7.33776 16.1026 7.1925 16.0806 7.04923C16.0677 6.93362 16.0117 6.82711 15.9239 6.75085C15.7988 6.66449 15.6496 6.61974 15.4976 6.62298C15.0851 6.62985 14.4485 6.85123 11.3946 8.12173Z" fill="white" fill-opacity="0.25"/>
</svg>
