<svg width="22" height="19" viewBox="0 0 22 19" fill="none" xmlns="http://www.w3.org/2000/svg">
<path d="M6.95908 18.002C15.3194 18.002 19.8928 11.0747 19.8928 5.07794C19.8928 4.88409 19.8928 4.68748 19.8845 4.49363C20.7749 3.84907 21.5433 3.05107 22.1539 2.13702C21.3221 2.50373 20.4408 2.74542 19.5383 2.85425C20.4889 2.28605 21.2009 1.39205 21.5419 0.338398C20.6488 0.867493 19.6713 1.23892 18.6522 1.4364C17.967 0.706739 17.0604 0.223361 16.0727 0.061139C15.0851 -0.101083 14.0715 0.0669045 13.1889 0.539081C12.3064 1.01126 11.6042 1.76127 11.1911 2.67295C10.778 3.58462 10.677 4.60708 10.9039 5.58194C9.09657 5.49132 7.32852 5.02182 5.71437 4.20389C4.10022 3.38596 2.67603 2.23788 1.53416 0.834091C0.954472 1.83528 0.777564 3.01957 1.03936 4.14646C1.30115 5.27335 1.98202 6.25837 2.94369 6.90148C2.22306 6.877 1.51826 6.68349 0.886155 6.33656V6.39887C0.887397 7.44769 1.25073 8.46391 1.91475 9.27577C2.57877 10.0876 3.50273 10.6453 4.53047 10.8546C4.14037 10.962 3.7374 11.0156 3.33277 11.0138C3.04752 11.0147 2.76284 10.9882 2.48262 10.9349C2.77309 11.8377 3.33869 12.6271 4.10019 13.1925C4.86169 13.7578 5.78096 14.0708 6.72924 14.0876C5.11831 15.3529 3.1284 16.0391 1.08 16.0358C0.71906 16.0373 0.358371 16.0165 0 15.9735C2.07902 17.2989 4.49349 18.0027 6.95908 18.002Z" fill="white" fill-opacity="0.25"/>
</svg>
