<svg width="24" height="17" viewBox="0 0 24 17" fill="none" xmlns="http://www.w3.org/2000/svg">
<path d="M12.0765 0.000976562H12.21C13.443 0.00547656 19.6905 0.0504768 21.375 0.503477C21.8842 0.64173 22.3483 0.91121 22.7207 1.28499C23.0932 1.65877 23.361 2.12375 23.4975 2.63348C23.649 3.20348 23.7555 3.95798 23.8275 4.73648L23.8425 4.89248L23.8755 5.28248L23.8875 5.43848C23.985 6.80948 23.997 8.09348 23.9985 8.37398V8.48648C23.997 8.77748 23.9835 10.1485 23.8755 11.5765L23.8635 11.734L23.85 11.89C23.775 12.748 23.664 13.6 23.4975 14.227C23.3615 14.7369 23.0938 15.2021 22.7212 15.576C22.3487 15.9498 21.8844 16.2191 21.375 16.357C19.635 16.825 13.0215 16.858 12.105 16.8595H11.892C11.4285 16.8595 9.5115 16.8505 7.5015 16.7815L7.2465 16.7725L7.116 16.7665L6.8595 16.756L6.603 16.7455C4.938 16.672 3.3525 16.5535 2.622 16.3555C2.11273 16.2178 1.6486 15.9487 1.27609 15.5751C0.903575 15.2015 0.63577 14.7366 0.4995 14.227C0.333 13.6015 0.222 12.748 0.147 11.89L0.135 11.7325L0.123 11.5765C0.0489714 10.5601 0.0079498 9.54154 0 8.52248L0 8.33798C0.003 8.01548 0.015 6.90098 0.096 5.67098L0.1065 5.51648L0.111 5.43848L0.123 5.28248L0.156 4.89248L0.171 4.73648C0.243 3.95798 0.3495 3.20198 0.501 2.63348C0.63704 2.12355 0.904743 1.65834 1.27727 1.2845C1.6498 0.910657 2.11405 0.641315 2.6235 0.503477C3.354 0.308477 4.9395 0.188476 6.6045 0.113476L6.8595 0.102977L7.1175 0.0939768L7.2465 0.0894768L7.503 0.0789768C8.93056 0.0330387 10.3587 0.00753586 11.787 0.00247663H12.0765V0.000976562ZM9.6 4.81598V12.043L15.8355 8.43098L9.6 4.81598Z" fill="white" fill-opacity="0.25"/>
</svg>
