<svg width="22" height="17" viewBox="0 0 22 17" fill="none" xmlns="http://www.w3.org/2000/svg">
<path d="M19.7655 0H1.34006C0.600021 0 0 0.599984 0 1.34002V15.0754C0 15.8154 0.600021 16.4154 1.34006 16.4154H19.7655C20.5056 16.4154 21.1056 15.8154 21.1056 15.0754V1.34002C21.1056 0.599984 20.5056 0 19.7655 0ZM19.7655 1.34002V11.0858L17.1246 8.68475C16.7277 8.32394 16.1173 8.33835 15.738 8.71793L13.0653 11.3903L7.79533 5.09546C7.39698 4.61974 6.66733 4.61506 6.263 5.08507L1.34006 10.8064V1.34002H19.7655ZM14.0704 4.85762C14.0704 3.83985 14.8951 3.01505 15.9129 3.01505C16.9307 3.01505 17.7554 3.83985 17.7554 4.85762C17.7554 5.87538 16.9307 6.70014 15.9129 6.70014C14.8952 6.70018 14.0704 5.87538 14.0704 4.85762Z" fill="white"/>
</svg>
