<svg width="28" height="28" viewBox="0 0 28 28" fill="none" xmlns="http://www.w3.org/2000/svg">
<path d="M16.7765 5.61668V0H4.22223C3.54723 0 3 0.520188 3 1.16184V26.8382C3 27.4798 3.54723 28 4.22223 28H23.7778C24.4528 28 25 27.4798 25 26.8382V7.7881H19.0608C17.8013 7.7881 16.7765 6.81401 16.7765 5.61668ZM11.8408 21.9593L9.24054 24.4311C9.07204 24.5913 8.85118 24.6714 8.63038 24.6714C8.40958 24.6714 8.18866 24.5913 8.02021 24.4311L6.94071 23.405C6.6037 23.0847 6.6037 22.5653 6.94071 22.245C7.27767 21.9246 7.82409 21.9246 8.1611 22.245L8.63038 22.691L10.6205 20.7993C10.9574 20.4789 11.5038 20.4789 11.8409 20.7993C12.1779 21.1196 12.1779 21.639 11.8408 21.9593ZM11.8408 16.4906L9.24054 18.9623C9.07204 19.1225 8.85118 19.2026 8.63038 19.2026C8.40958 19.2026 8.18866 19.1226 8.02021 18.9624L6.94071 17.9363C6.6037 17.6159 6.6037 17.0966 6.94071 16.7762C7.27767 16.4559 7.82409 16.4559 8.1611 16.7762L8.63038 17.2223L10.6205 15.3305C10.9574 15.0102 11.5038 15.0102 11.8409 15.3305C12.1779 15.6509 12.1779 16.1702 11.8408 16.4906ZM11.8408 10.6042L9.24054 13.0759C9.07204 13.2361 8.85118 13.3162 8.63038 13.3162C8.40958 13.3162 8.18866 13.2362 8.02021 13.0759L6.94071 12.0498C6.6037 11.7294 6.6037 11.2101 6.94071 10.8897C7.27767 10.5693 7.82409 10.5693 8.1611 10.8897L8.63038 11.3358L10.6205 9.44409C10.9574 9.12373 11.5038 9.12373 11.8409 9.44409C12.1779 9.76445 12.1779 10.2838 11.8408 10.6042ZM20.4491 23.4355H14.9262C14.4496 23.4355 14.0633 23.0682 14.0633 22.6152C14.0633 22.1622 14.4496 21.7949 14.9262 21.7949H20.4491C20.9257 21.7949 21.3121 22.1622 21.3121 22.6152C21.3121 23.0682 20.9257 23.4355 20.4491 23.4355ZM14.0633 17.1464C14.0633 16.6934 14.4496 16.3261 14.9262 16.3261H20.4244C20.901 16.3261 21.2874 16.6934 21.2874 17.1464C21.2874 17.5995 20.901 17.9668 20.4244 17.9668H14.9262C14.4496 17.9668 14.0633 17.5995 14.0633 17.1464ZM21.2875 11.6777C21.2875 12.1307 20.9011 12.498 20.4245 12.498H14.9263C14.4497 12.498 14.0633 12.1307 14.0633 11.6777C14.0633 11.2247 14.4497 10.8574 14.9263 10.8574H20.4245C20.9011 10.8574 21.2875 11.2247 21.2875 11.6777Z" fill="white"/>
<path d="M19 5.48656C19 5.76968 19.2284 6 19.5091 6H25L19 0V5.48656Z" fill="white"/>
</svg>
