<svg width="15" height="13" viewBox="0 0 15 13" fill="none" xmlns="http://www.w3.org/2000/svg">
<path d="M5.25073 10.8997L7.22927 10.0499L6.09732 8.91797L5.25073 10.8997Z" fill="white"/>
<path d="M6.43799 8.36279L11.1458 3.65498L12.4899 4.99911L7.78212 9.70692L6.43799 8.36279Z" fill="white"/>
<path d="M12.943 4.55175L14.0623 3.42931C14.4332 3.05793 14.4332 2.4563 14.0623 2.08492C13.6858 1.72658 13.0944 1.72658 12.7179 2.08492L12.0457 2.75711L11.5986 3.20736L12.943 4.55175Z" fill="white"/>
<path fill-rule="evenodd" clip-rule="evenodd" d="M0.951219 0H3.06678H3.1961H7.5136L7.57321 0.0198707L7.58439 0H9.82927C10.3546 0 10.7805 0.425876 10.7805 0.95122V1.81366C10.553 1.83007 10.3391 1.92802 10.178 2.08951L8.16146 4.10927C8.03852 4.23294 8.03852 4.43267 8.16146 4.55634C8.21993 4.61715 8.30064 4.65152 8.385 4.65152C8.46935 4.65152 8.55007 4.61715 8.60853 4.55634L10.6251 2.53976C10.667 2.49671 10.7214 2.46788 10.7805 2.45732V3.28171L5.72 8.34537C5.70042 8.3628 5.68239 8.3819 5.6661 8.40244C5.64692 8.42616 5.63191 8.45296 5.62171 8.48171L4.28049 11.608C4.22925 11.7276 4.25625 11.8663 4.34858 11.958C4.44091 12.0496 4.57985 12.0756 4.69902 12.0234L7.80317 10.6917C7.83186 10.6805 7.85946 10.6667 7.88561 10.6505L7.89113 10.647L7.89468 10.6449C7.91383 10.6333 7.93012 10.617 8.45928 10.0869L8.45973 10.0865L8.46022 10.086C8.86249 9.68302 9.56065 8.98369 10.7805 7.76512V12.0488C10.7805 12.5741 10.3546 13 9.82927 13H0.951219C0.425875 13 0 12.5741 0 12.0488V0.95122C0 0.425876 0.425875 0 0.951219 0ZM1.58537 2.53659H2.85366C2.85837 2.53659 2.86306 2.53669 2.86772 2.53689H7.86011C8.03524 2.53689 8.17721 2.67886 8.17721 2.854C8.17721 3.02913 8.03524 3.1711 7.86011 3.1711H2.02007C2.01488 3.1711 2.00971 3.17098 2.00458 3.17073H1.58537C1.41025 3.17073 1.26829 3.02877 1.26829 2.85366C1.26829 2.67854 1.41025 2.53659 1.58537 2.53659ZM1.58537 4.12195H2.85366C2.85925 4.12195 2.8648 4.1221 2.87032 4.12238H7.46391C7.63904 4.12238 7.78101 4.26435 7.78101 4.43949C7.78101 4.61462 7.63904 4.75659 7.46391 4.75659H1.62387C1.61787 4.75659 1.61191 4.75643 1.60599 4.7561H1.58537C1.41025 4.7561 1.26829 4.61414 1.26829 4.43902C1.26829 4.26391 1.41025 4.12195 1.58537 4.12195ZM3.60195 11.0976H1.58537C1.41025 11.0976 1.26829 10.9556 1.26829 10.7805C1.26829 10.6054 1.41025 10.4634 1.58537 10.4634H3.60195C3.77706 10.4634 3.91902 10.6054 3.91902 10.7805C3.91902 10.9556 3.77706 11.0976 3.60195 11.0976ZM4.28049 9.51219H1.58537C1.41025 9.51219 1.26829 9.37024 1.26829 9.19512C1.26829 9.02001 1.41025 8.87805 1.58537 8.87805H4.28049C4.4556 8.87805 4.59756 9.02001 4.59756 9.19512C4.59756 9.37024 4.4556 9.51219 4.28049 9.51219ZM5.10805 7.92683H1.58537C1.41025 7.92683 1.26829 7.78487 1.26829 7.60976C1.26829 7.43464 1.41025 7.29268 1.58537 7.29268H5.10805C5.28316 7.29268 5.42512 7.43464 5.42512 7.60976C5.42512 7.78487 5.28316 7.92683 5.10805 7.92683ZM6.69341 6.34146H1.58537C1.41025 6.34146 1.26829 6.1995 1.26829 6.02439C1.26829 5.84928 1.41025 5.70732 1.58537 5.70732H6.69341C6.86853 5.70732 7.01049 5.84928 7.01049 6.02439C7.01049 6.1995 6.86853 6.34146 6.69341 6.34146Z" fill="white"/>
</svg>
