<svg width="129" height="44" viewBox="0 0 129 44" fill="none" xmlns="http://www.w3.org/2000/svg">
<path d="M30.5354 44H0V0H30.5354V44ZM1.6423 42.3577H28.8954V1.6423H1.6423V42.3577Z" fill="white"/>
<path d="M23.3138 37.6839L7.90814 22.2782H12.4313C16.6215 22.2782 20.0315 18.8681 20.0315 14.678C20.0315 10.4878 16.6215 7.08005 12.4313 7.08005H1.6423V23.2978H0V5.43774H12.4313C17.527 5.43774 21.6715 9.58228 21.6715 14.678C21.6715 19.7737 17.527 23.9182 12.4313 23.9182H11.8725L21.6715 33.7196V22.2805H29.7165V23.9228H23.3138V37.6839Z" fill="white"/>
<path d="M15.83 25.5698L20.0657 29.8056V25.5698H15.83Z" fill="#E85B25"/>
<path d="M58.156 18L54.746 12.192C56.528 11.378 57.716 9.618 57.716 7.704C57.716 6.296 57.21 5.086 56.22 4.096C55.23 3.106 54.02 2.6 52.59 2.6H46.43V18H49.466V12.654H51.776L54.878 18H58.156ZM52.59 5.438C53.734 5.438 54.68 6.45 54.68 7.704C54.68 8.958 53.734 9.992 52.59 9.992H49.466V5.438H52.59ZM67.2753 18L72.4673 2.6H69.1453L65.4053 14.436L61.6433 2.6H58.3433L63.5133 18H67.2753ZM82.8615 11.994L76.2615 2.6H73.9515V18H76.9875V8.584L83.5875 18H85.8975V2.6H82.8615V11.994ZM53.096 41L55.978 30.836L58.882 41H62.336L66.648 25.6H63.458L60.51 37.018L57.276 25.6H54.68L51.468 37.018L48.52 25.6H45.33L49.642 41H53.096ZM77.658 36.666C77.724 36.248 77.768 35.874 77.768 35.5C77.768 33.85 77.24 32.486 76.184 31.364C75.15 30.242 73.808 29.692 72.202 29.692C70.508 29.692 69.1 30.242 68.022 31.364C66.944 32.464 66.394 33.85 66.394 35.5C66.394 37.172 66.944 38.558 68.044 39.658C69.144 40.758 70.596 41.308 72.422 41.308C74.534 41.308 76.14 40.516 77.218 38.954L74.93 37.634C74.38 38.36 73.544 38.734 72.466 38.734C70.772 38.734 69.738 38.052 69.364 36.666H77.658ZM69.32 34.466C69.65 33.058 70.684 32.244 72.202 32.244C73.5 32.244 74.6 32.97 74.93 34.466H69.32ZM86.1512 29.692C84.6112 29.692 83.4232 30.22 82.5872 31.298V25.6H79.7492V41H82.5872V39.702C83.4232 40.78 84.6112 41.308 86.1512 41.308C87.6252 41.308 88.9012 40.758 89.9352 39.636C90.9912 38.514 91.5192 37.128 91.5192 35.5C91.5192 33.872 90.9912 32.508 89.9352 31.386C88.9012 30.264 87.6252 29.692 86.1512 29.692ZM83.4452 37.744C82.8732 37.15 82.5872 36.402 82.5872 35.5C82.5872 34.598 82.8732 33.85 83.4452 33.278C84.0172 32.684 84.7432 32.398 85.6232 32.398C86.5032 32.398 87.2292 32.684 87.8012 33.278C88.3952 33.85 88.6812 34.598 88.6812 35.5C88.6812 36.402 88.3952 37.15 87.8012 37.744C87.2292 38.316 86.5032 38.602 85.6232 38.602C84.7432 38.602 84.0172 38.316 83.4452 37.744ZM95.9023 33.124C95.9023 32.574 96.4523 32.222 97.1783 32.222C97.9923 32.222 98.5863 32.596 98.9383 33.344L101.358 32.024C100.5 30.528 98.9603 29.692 97.1783 29.692C95.9903 29.692 95.0003 30 94.1863 30.638C93.3943 31.254 92.9983 32.112 92.9983 33.19C92.9983 35.478 95.0443 36.16 96.6723 36.578C97.7943 36.864 98.6743 37.194 98.6743 37.788C98.6743 38.426 98.1683 38.734 97.1563 38.734C96.0343 38.734 95.3303 38.25 95.0003 37.304L92.5363 38.69C93.3503 40.428 94.8903 41.308 97.1563 41.308C98.4103 41.308 99.4663 41 100.302 40.406C101.16 39.79 101.578 38.91 101.578 37.788C101.6 35.434 99.5103 34.664 97.9043 34.334C96.7823 34.048 95.9023 33.718 95.9023 33.124ZM104.919 29.032C105.887 29.032 106.679 28.262 106.679 27.338C106.679 26.414 105.887 25.622 104.919 25.622C103.973 25.622 103.181 26.414 103.181 27.338C103.181 28.262 103.973 29.032 104.919 29.032ZM106.349 41V30H103.511V41H106.349ZM115.238 30H112.752V26.92L109.914 27.778V30H108V32.728H109.914V37.304C109.914 40.318 111.344 41.44 115.238 41V38.426C113.61 38.514 112.752 38.492 112.752 37.304V32.728H115.238V30ZM128.103 36.666C128.169 36.248 128.213 35.874 128.213 35.5C128.213 33.85 127.685 32.486 126.629 31.364C125.595 30.242 124.253 29.692 122.647 29.692C120.953 29.692 119.545 30.242 118.467 31.364C117.389 32.464 116.839 33.85 116.839 35.5C116.839 37.172 117.389 38.558 118.489 39.658C119.589 40.758 121.041 41.308 122.867 41.308C124.979 41.308 126.585 40.516 127.663 38.954L125.375 37.634C124.825 38.36 123.989 38.734 122.911 38.734C121.217 38.734 120.183 38.052 119.809 36.666H128.103ZM119.765 34.466C120.095 33.058 121.129 32.244 122.647 32.244C123.945 32.244 125.045 32.97 125.375 34.466H119.765Z" fill="white"/>
</svg>
