<svg width="200" height="289" viewBox="0 0 200 289" fill="none" xmlns="http://www.w3.org/2000/svg">
<path d="M200 288.19H0V0H200V288.19ZM10.7567 277.433H189.258V10.7567H10.7567V277.433Z" fill="white"/>
<path d="M152.7 246.822L51.7965 145.918H81.4223C108.867 145.918 131.202 123.583 131.202 96.138C131.202 68.6935 108.867 46.3733 81.4223 46.3733H10.7567V152.596H0V35.6166H81.4223C114.798 35.6166 141.944 62.7624 141.944 96.138C141.944 129.514 114.798 156.659 81.4223 156.659H77.762L141.944 220.856V145.933H194.637V156.689H152.7V246.822Z" fill="white"/>
<path d="M103.683 167.476L131.426 195.219V167.476H103.683Z" fill="#E85B25"/>
</svg>
