<svg width="24" height="24" viewBox="0 0 24 24" fill="none" xmlns="http://www.w3.org/2000/svg">
<path d="M13.9829 9.85122C13.9829 10.9463 13.0951 11.8343 12 11.8343C10.9049 11.8343 10.0172 10.9463 10.0172 9.85122C10.0172 8.75613 10.9049 7.86841 12 7.86841C13.0951 7.86841 13.9829 8.75613 13.9829 9.85122Z" fill="white"/>
<path d="M12 14.8629C11.052 14.8564 10.1421 15.2359 9.47987 15.9142C8.89147 16.5142 8.53701 17.3142 8.45129 18.1885H15.5486C15.4629 17.3084 15.1084 16.5142 14.52 15.9142C13.8578 15.2359 12.9479 14.8564 12 14.8629Z" fill="white"/>
<path d="M18.8571 0H5.14279C4.10172 0.00111607 3.2582 0.844643 3.25708 1.88571V22.1143C3.2582 23.1554 4.10172 23.9989 5.14279 24H18.8571C19.8982 23.9989 20.7417 23.1554 20.7428 22.1143V1.88571C20.7417 0.844643 19.8982 0.00111607 18.8571 0ZM9.61713 1.89152H14.1886C14.4093 1.89152 14.5886 2.07054 14.5886 2.29152C14.5886 2.51228 14.4093 2.69152 14.1886 2.69152H9.61713C9.39614 2.69152 9.21713 2.51228 9.21713 2.29152C9.21713 2.07054 9.39614 1.89152 9.61713 1.89152ZM11.9999 7.06853C13.5352 7.07009 14.7787 8.31607 14.7772 9.85134C14.7756 11.3868 13.5296 12.6301 11.9941 12.6286C10.4589 12.627 9.21556 11.381 9.21713 9.84576C9.22204 8.31183 10.466 7.07031 11.9999 7.06853ZM15.9656 18.9886H8.03431C7.92784 18.9893 7.82583 18.9473 7.75061 18.8721C7.67538 18.7969 7.63364 18.6949 7.63431 18.5886C7.63431 17.3429 8.08565 16.1942 8.90842 15.3542C9.72494 14.5279 10.8383 14.0629 11.9999 14.0629C13.1615 14.0629 14.2749 14.5279 15.0915 15.3542C15.9142 16.1942 16.3656 17.3429 16.3656 18.5886C16.3662 18.6949 16.3245 18.7969 16.2493 18.8721C16.174 18.9473 16.072 18.9893 15.9656 18.9886Z" fill="white"/>
</svg>
