<svg width="28" height="28" viewBox="0 0 28 28" fill="none" xmlns="http://www.w3.org/2000/svg">
<path d="M14 0C6.28009 0 0 6.28009 0 14C0 21.7199 6.28009 28 14 28C21.7199 28 28 21.7199 28 14C28 6.28009 21.7199 0 14 0ZM14 22.1666C13.3559 22.1666 12.8334 21.6441 12.8334 21C12.8334 20.3559 13.3559 19.8334 14 19.8334C14.6441 19.8334 15.1666 20.3559 15.1666 21C15.1666 21.6441 14.6441 22.1666 14 22.1666ZM15.8468 14.749C15.4338 14.9391 15.1666 15.3557 15.1666 15.8096V16.3334C15.1666 16.9773 14.6451 17.5 14 17.5C13.3549 17.5 12.8334 16.9773 12.8334 16.3334V15.8096C12.8334 14.448 13.6336 13.1998 14.8692 12.6292C16.058 12.0821 16.9166 10.6295 16.9166 9.9166C16.9166 8.30908 15.6088 7 14 7C12.3912 7 11.0834 8.30908 11.0834 9.9166C11.0834 10.5607 10.5617 11.0834 9.9166 11.0834C9.27145 11.0834 8.75 10.5607 8.75 9.9166C8.75 7.02222 11.1054 4.6666 14 4.6666C16.8946 4.6666 19.25 7.02222 19.25 9.9166C19.25 11.4929 17.8826 13.8099 15.8468 14.749Z" fill="white"/>
</svg>
