<svg width="18" height="18" viewBox="0 0 18 18" fill="none" xmlns="http://www.w3.org/2000/svg">
<path d="M8.47266 0.544922V1.63477C8.47266 1.92625 8.70852 2.16211 9 2.16211C9.29148 2.16211 9.52734 1.92625 9.52734 1.63477V0.544922C9.52734 0.253441 9.29148 0.0175781 9 0.0175781C8.70852 0.0175781 8.47266 0.253441 8.47266 0.544922Z" fill="white"/>
<path d="M2.14453 9.01758C2.14453 8.7261 1.90867 8.49023 1.61719 8.49023H0.527344C0.235863 8.49023 0 8.7261 0 9.01758C0 9.30906 0.235863 9.54492 0.527344 9.54492H1.61719C1.90867 9.54492 2.14453 9.30906 2.14453 9.01758Z" fill="white"/>
<path d="M17.4727 8.49023H16.3828C16.0913 8.49023 15.8555 8.7261 15.8555 9.01758C15.8555 9.30906 16.0913 9.54492 16.3828 9.54492H17.4727C17.7641 9.54492 18 9.30906 18 9.01758C18 8.7261 17.7641 8.49023 17.4727 8.49023Z" fill="white"/>
<path d="M2.34253 12.2524L1.42896 12.7798C1.1766 12.9255 1.09008 13.2479 1.23584 13.5002C1.38318 13.7546 1.70673 13.8375 1.9563 13.6934L2.86987 13.166C3.12222 13.0203 3.20874 12.6979 3.06298 12.4456C2.91673 12.1932 2.59382 12.1067 2.34253 12.2524Z" fill="white"/>
<path d="M15.657 5.78294L16.5705 5.25559C16.8229 5.10983 16.9094 4.78749 16.7637 4.53513C16.6179 4.28278 16.294 4.19577 16.0432 4.34202L15.1296 4.86936C14.8773 5.01512 14.7908 5.33747 14.9365 5.58982C15.0839 5.84422 15.4074 5.92708 15.657 5.78294Z" fill="white"/>
<path d="M12.7617 1.447L12.2344 2.36057C12.0886 2.61292 12.1751 2.9353 12.4275 3.08102C12.6774 3.22534 13.0008 3.14191 13.1479 2.88791L13.6753 1.97434C13.821 1.72199 13.7345 1.39961 13.4822 1.25389C13.2298 1.10816 12.9074 1.19468 12.7617 1.447Z" fill="white"/>
<path d="M4.51782 1.25389C4.26547 1.39964 4.17895 1.72199 4.32471 1.97434L4.85205 2.88791C4.99939 3.1423 5.32294 3.22517 5.57251 3.08103C5.82486 2.93527 5.91138 2.61292 5.76563 2.36057L5.23828 1.447C5.09203 1.19468 4.7681 1.10816 4.51782 1.25389Z" fill="white"/>
<path d="M16.571 12.7798L15.6575 12.2524C15.4056 12.1067 15.0827 12.1932 14.937 12.4456C14.7913 12.6979 14.8778 13.0203 15.1301 13.166L16.0437 13.6934C16.2936 13.8377 16.617 13.7542 16.7641 13.5002C16.9099 13.2479 16.8233 12.9255 16.571 12.7798Z" fill="white"/>
<path d="M2.87034 4.86936L1.95677 4.34202C1.70495 4.19577 1.38204 4.28278 1.23632 4.53513C1.09059 4.78748 1.17708 5.10987 1.42943 5.25559L2.343 5.78293C2.59271 5.92718 2.91619 5.84403 3.06346 5.58982C3.20918 5.33747 3.12266 5.01508 2.87034 4.86936Z" fill="white"/>
<path d="M9.00001 4.28711C6.63101 4.28788 4.87523 5.88419 4.39862 7.83406C3.99179 9.49744 4.46661 11.1953 5.66804 12.3762C6.02544 12.7274 6.25132 13.2208 6.32775 13.7636H11.6743C11.7549 13.222 11.9918 12.7173 12.3665 12.3422C13.2563 11.4503 13.7461 10.2694 13.7461 9.01749C13.7461 6.46504 11.7322 4.28641 9.00001 4.28711ZM9.00001 12.7089C8.70877 12.7089 8.47267 12.4728 8.47267 12.1816C8.47267 11.8902 8.70877 11.6542 9.00001 11.6542C9.29124 11.6542 9.52735 11.8902 9.52735 12.1816C9.52735 12.4728 9.29124 12.7089 9.00001 12.7089ZM9.58452 9.96041L9.52735 10.0722C9.52735 10.3637 9.29149 10.5995 9.00001 10.5995C8.70853 10.5995 8.47267 10.3637 8.47267 10.0722C8.47267 9.57317 8.75592 9.15498 9.19467 8.9804C9.39706 8.90007 9.52735 8.70745 9.52735 8.49014C9.52735 8.19919 9.29096 7.9628 9.00001 7.9628C8.70906 7.9628 8.47267 8.19919 8.47267 8.49014C8.47267 8.78163 8.2368 9.01749 7.94532 9.01749C7.65384 9.01749 7.41798 8.78163 7.41798 8.49014C7.41798 7.61778 8.12764 6.90811 9.00001 6.90811C9.87238 6.90811 10.582 7.61778 10.582 8.49014C10.582 9.14212 10.1906 9.71942 9.58452 9.96041Z" fill="white"/>
<path d="M6.36328 15.1927C6.36328 16.7573 7.52147 17.9824 9 17.9824C10.4538 17.9824 11.6367 16.7995 11.6367 15.3457V14.8184H6.36328V15.1927Z" fill="white"/>
</svg>
