<svg width="23" height="23" viewBox="0 0 23 23" fill="none" xmlns="http://www.w3.org/2000/svg">
<g clip-path="url(#clip0_28_2974)">
<path d="M16.7273 16.7273H6.27271V18.8182H16.7273V16.7273Z" fill="white"/>
<path d="M6.27271 20.9092V21.9546V23.0001H16.7273V21.9546V20.9092H6.27271Z" fill="white"/>
<path d="M22.7906 6.01248L18.5897 0.417773C18.3923 0.154801 18.0825 0 17.7537 0H16.0303V1.04547V2.09093V8.71215C16.0303 9.28944 15.5622 9.75762 14.9849 9.75762H5.22729C4.64991 9.75762 4.18182 9.28944 4.18182 8.71215V2.09089V1.04547V0H1.04547C0.468086 0 0 0.468176 0 1.04547V21.9546C0 22.5318 0.468086 23 1.04547 23H4.18182V21.9545V20.9091V19.8636V15.6818C4.18182 15.1044 4.64991 14.6363 5.22729 14.6363H17.7728C18.3501 14.6363 18.8182 15.1043 18.8182 15.6818V19.8636V20.9091V21.9545V23H21.9546C22.5319 23 23 22.5318 23 21.9545V6.64022C23 6.41386 22.9265 6.19347 22.7906 6.01248Z" fill="white"/>
<path d="M6.27271 0V1.04547V2.09089V7.66668H13.9394V2.09089V1.04547V0H6.27271Z" fill="white"/>
</g>
<defs>
<clipPath id="clip0_28_2974">
<rect width="23" height="23" fill="white"/>
</clipPath>
</defs>
</svg>
