<svg width="17" height="17" viewBox="0 0 17 17" fill="none" xmlns="http://www.w3.org/2000/svg">
<path d="M2.49181 13.9589L2.64758 14.434L2.49181 13.9589C2.34767 14.0062 2.19794 13.9446 2.13111 13.8325C2.1311 13.8325 2.13109 13.8325 2.13108 13.8325L0.536432 11.1558C0.473006 11.0493 0.492606 10.9128 0.595202 10.8255L0.595209 10.8255L2.45611 9.24054C2.57557 9.13879 2.64034 8.98687 2.63103 8.83023C2.6245 8.72023 2.62123 8.60989 2.62123 8.5C2.62123 8.39012 2.6245 8.27982 2.63103 8.16976C2.64034 8.01312 2.57557 7.86121 2.45611 7.75946L0.595209 6.17455L0.595202 6.17454C0.492588 6.08715 0.473028 5.95072 0.536413 5.84432L0.536416 5.84432L2.13108 3.16754C2.13109 3.16752 2.1311 3.1675 2.13111 3.16749C2.19791 3.05545 2.34771 2.99386 2.49182 3.04109C2.49182 3.04109 2.49183 3.04109 2.49183 3.04109L4.83841 3.81041C4.98093 3.85714 5.13691 3.83742 5.26332 3.75668C5.45462 3.63449 5.65288 3.52327 5.85688 3.42382C5.9962 3.35591 6.09615 3.22723 6.12747 3.07544L6.61311 0.722226L6.61311 0.722212C6.63758 0.603631 6.75177 0.5 6.90531 0.5H10.0947C10.2482 0.5 10.3624 0.603631 10.3869 0.722212L10.3869 0.722226L10.8725 3.07544C10.9039 3.22723 11.0038 3.35591 11.1431 3.42382C11.3472 3.52331 11.5455 3.63447 11.7366 3.7566C11.863 3.8374 12.019 3.85716 12.1616 3.81041L14.5081 3.04109L14.5081 3.04107C14.6523 2.9938 14.802 3.0554 14.8688 3.16749L16.4635 5.84432C16.5269 5.95071 16.5073 6.08715 16.4047 6.17454L16.7289 6.5552L16.4047 6.17455L14.5438 7.75946C14.4243 7.86125 14.3595 8.01325 14.3689 8.16994C14.3755 8.2802 14.3788 8.39043 14.3788 8.5C14.3788 8.60951 14.3755 8.71975 14.3689 8.83001C14.3595 8.98671 14.4243 9.13871 14.5438 9.24049L16.4048 10.8255L16.729 10.4448L16.4048 10.8255C16.5074 10.9128 16.527 11.0493 16.4636 11.1557L14.8689 13.8325L14.8689 13.8325C14.8022 13.9445 14.6525 14.0062 14.5081 13.9589L12.1616 13.1896C12.0191 13.1429 11.8631 13.1626 11.7367 13.2433C11.5454 13.3655 11.3471 13.4767 11.1431 13.5762C11.0038 13.6441 10.9039 13.7728 10.8725 13.9246L10.3869 16.2778L10.3869 16.2778C10.3624 16.3964 10.2482 16.5 10.0947 16.5H6.90531C6.75177 16.5 6.63758 16.3964 6.61311 16.2778L6.61311 16.2778L6.12747 13.9246C6.09615 13.7728 5.9962 13.6441 5.85688 13.5762C5.65279 13.4767 5.45451 13.3655 5.26334 13.2434C5.13692 13.1626 4.98091 13.1428 4.83835 13.1896L2.49181 13.9589ZM12.1894 8.5C12.1894 6.50486 10.5199 4.90909 8.5 4.90909C6.48013 4.90909 4.81061 6.50486 4.81061 8.5C4.81061 10.4951 6.48013 12.0909 8.5 12.0909C10.5199 12.0909 12.1894 10.4951 12.1894 8.5Z" stroke="white" stroke-linejoin="round"/>
</svg>
