<svg width="123" height="160" viewBox="0 0 123 160" fill="none" xmlns="http://www.w3.org/2000/svg">
<path d="M56.6117 41.8611H49.7908V48.7424H56.6117C58.4952 48.7424 60.0222 47.2019 60.0222 45.3017C60.0222 43.4016 58.4952 41.8611 56.6117 41.8611Z" fill="#FA7542"/>
<path d="M56.6117 65.9456H49.7908V72.8269H56.6117C58.4952 72.8269 60.0222 71.2864 60.0222 69.3862C60.0222 67.486 58.4952 65.9456 56.6117 65.9456Z" fill="#FA7542"/>
<path d="M53.2012 69.3864C53.2012 67.4862 51.6742 65.9457 49.7907 65.9457H47.8581V48.7425H49.7907C51.6742 48.7425 53.2012 47.202 53.2012 45.3019C53.2012 43.4017 51.6742 41.8612 49.7907 41.8612H47.8581V33.0302C47.8581 31.1301 46.3312 29.5896 44.4477 29.5896C42.5642 29.5896 41.0372 31.1301 41.0372 33.0302V41.8612H23.9849V33.0302C23.9849 31.1301 22.4579 29.5896 20.5744 29.5896C18.691 29.5896 17.164 31.1301 17.164 33.0302V41.8612H8.41046C6.52698 41.8612 5 43.4017 5 45.3019C5 47.202 6.52698 48.7425 8.41046 48.7425H17.164V65.9457H8.41046C6.52698 65.9457 5 67.4862 5 69.3864C5 71.2865 6.52698 72.827 8.41046 72.827H17.164V81.658C17.164 83.5582 18.691 85.0986 20.5744 85.0986C22.4579 85.0986 23.9849 83.5582 23.9849 81.658V72.827H41.0372V81.658C41.0372 83.5582 42.5642 85.0986 44.4477 85.0986C46.3312 85.0986 47.8581 83.5582 47.8581 81.658V72.827H49.7907C51.6742 72.827 53.2012 71.2865 53.2012 69.3864ZM41.0372 65.9457H23.9849V48.7425H41.0372V65.9457Z" fill="#E85B25"/>
<path d="M107.769 93.3561V10.3219C107.769 4.62124 103.188 0 97.5371 0H66.843C61.1923 0 56.6116 4.62124 56.6116 10.3219C56.6116 16.0226 61.1923 20.6439 66.843 20.6439V93.3561C61.1923 93.3561 56.6116 97.9774 56.6116 103.678C56.6116 109.379 61.1923 114 66.843 114H107.769C113.419 114 118 109.379 118 103.678C118 97.9774 113.419 93.3561 107.769 93.3561Z" fill="#E85B25"/>
<path d="M107.769 100.581H100.948V10.666C100.948 8.76583 99.4207 7.22534 97.5372 7.22534H90.7163V100.581C90.7163 104.382 97.1807 107.463 100.948 107.463H107.769C109.652 107.463 111.179 105.922 111.179 104.022C111.179 102.122 109.652 100.581 107.769 100.581Z" fill="#FA7542"/>
<path d="M94.1268 100.581V10.666C94.1268 8.76583 92.5998 7.22534 90.7163 7.22534H66.8431C64.9596 7.22534 63.4326 8.76583 63.4326 10.666C63.4326 12.5661 64.9596 14.1066 66.8431 14.1066H73.664V100.581H66.8431C64.9596 100.581 63.4326 102.122 63.4326 104.022C63.4326 105.922 64.9596 107.463 66.8431 107.463H100.948C97.1807 107.463 94.1268 104.382 94.1268 100.581Z" fill="#FF9870"/>
<path d="M15.479 128.136C16.2683 128.477 16.663 129.117 16.663 130.056C16.663 130.483 16.4817 130.931 16.119 131.4C15.7563 131.848 15.3083 132.072 14.775 132.072C14.2843 132.072 13.6763 131.912 12.951 131.592C11.927 131.187 10.8923 130.984 9.847 130.984C8.92967 130.984 8.151 131.24 7.511 131.752C6.871 132.264 6.551 132.883 6.551 133.608C6.551 134.312 6.871 134.824 7.511 135.144C8.151 135.464 9.13233 135.752 10.455 136.008C12.7163 136.499 14.4443 137.203 15.639 138.12C16.8337 139.059 17.431 140.467 17.431 142.344C17.431 144.456 16.695 146.131 15.223 147.368C13.751 148.627 11.8523 149.267 9.527 149.288C7.11633 149.331 5.047 148.915 3.319 148.04C2.33767 147.592 1.847 146.909 1.847 145.992C1.847 145.395 2.02833 144.861 2.391 144.392C2.73233 143.944 3.18033 143.72 3.735 143.72C4.247 143.72 4.823 143.859 5.463 144.136C6.97767 144.797 8.30033 145.128 9.431 145.128C10.4123 145.128 11.2443 144.883 11.927 144.392C12.5883 143.923 12.919 143.283 12.919 142.472C12.919 141.725 12.5883 141.149 11.927 140.744C11.2443 140.339 10.3163 140.019 9.143 139.784C6.94567 139.379 5.21767 138.717 3.959 137.8C2.72167 136.904 2.103 135.603 2.103 133.896C2.103 131.955 2.871 130.312 4.407 128.968C5.943 127.624 7.78833 126.952 9.943 126.952C11.031 126.952 12.023 127.059 12.919 127.272C13.8363 127.464 14.6897 127.752 15.479 128.136ZM21.214 129.192C21.2353 128.872 21.278 128.595 21.342 128.36C21.406 128.125 21.5553 127.923 21.79 127.752C22.238 127.432 22.814 127.272 23.518 127.272H24.798C25.7793 127.272 26.718 127.272 27.614 127.272C28.51 127.272 29.374 127.261 30.206 127.24C31.038 127.219 31.678 127.208 32.126 127.208C32.574 127.208 32.8407 127.208 32.926 127.208C33.5447 127.208 34.014 127.368 34.334 127.688C34.6327 128.008 34.8033 128.435 34.846 128.968C34.8887 130.056 34.5047 130.717 33.694 130.952C33.246 131.016 30.878 131.048 26.59 131.048H25.47V133.256L25.406 136.168V136.392H26.43C27.326 136.392 28.1687 136.392 28.958 136.392C29.7473 136.371 30.4833 136.349 31.166 136.328C31.998 136.328 32.606 136.456 32.99 136.712C33.374 136.968 33.5553 137.491 33.534 138.28C33.5127 139.517 32.8727 140.136 31.614 140.136H25.406C25.3847 140.307 25.374 140.541 25.374 140.84C25.374 141.139 25.374 141.501 25.374 141.928V145.192C26.654 145.192 27.806 145.192 28.83 145.192C29.854 145.171 30.75 145.149 31.518 145.128H32.574H33.502C34.654 145.128 35.23 145.768 35.23 147.048C35.23 148.392 34.5687 149.085 33.246 149.128H24.478C23.198 149.128 22.3233 148.989 21.854 148.712C21.3847 148.435 21.118 147.859 21.054 146.984C21.0113 146.579 21.0113 146.227 21.054 145.928C21.054 145.885 21.054 145.747 21.054 145.512C21.054 145.277 21.0647 144.936 21.086 144.488C21.1073 143.592 21.1393 142.376 21.182 140.84C21.2033 140.072 21.214 139.336 21.214 138.632C21.214 137.928 21.214 137.245 21.214 136.584V132.872V129.224V129.192ZM36.8878 147.048C36.8878 146.557 37.0691 145.885 37.4318 145.032C38.7971 142.024 39.7891 139.72 40.4078 138.12L44.2478 128.712C44.4398 128.221 44.7598 127.848 45.2078 127.592C45.6558 127.336 46.1571 127.208 46.7118 127.208C48.0771 127.208 48.9731 127.741 49.3998 128.808C49.4851 129.021 49.8691 129.981 50.5518 131.688C51.2344 133.373 52.2158 135.837 53.4958 139.08C53.5811 139.208 53.6664 139.389 53.7518 139.624C53.8371 139.859 53.9224 140.04 54.0078 140.168C54.6051 141.64 55.0958 142.856 55.4798 143.816C55.8851 144.776 56.1944 145.501 56.4078 145.992C56.6424 146.568 56.7598 147.016 56.7598 147.336C56.7598 147.805 56.5251 148.232 56.0558 148.616C55.5651 149 54.9891 149.192 54.3278 149.192C53.2824 149.192 52.5891 148.733 52.2478 147.816L50.7758 144.04C50.5624 144.019 50.0398 144.008 49.2078 144.008C48.3971 144.008 47.2558 144.008 45.7838 144.008H42.8078L41.4318 147.656C41.0051 148.659 40.3651 149.16 39.5118 149.16C38.7864 149.16 38.1784 148.989 37.6878 148.648C37.1758 148.307 36.9198 147.763 36.9198 147.016L36.8878 147.048ZM46.7758 132.584C46.5411 133.267 45.6131 135.923 43.9918 140.552C45.0371 140.552 46.0078 140.552 46.9038 140.552C47.8211 140.531 48.6744 140.509 49.4638 140.488C49.3571 140.232 48.9411 139.016 48.2158 136.84C47.8531 135.752 47.5438 134.856 47.2878 134.152C47.0531 133.427 46.8824 132.893 46.7758 132.552V132.584ZM72.5415 128.136C73.3308 128.477 73.7255 129.117 73.7255 130.056C73.7255 130.483 73.5442 130.931 73.1815 131.4C72.8188 131.848 72.3708 132.072 71.8375 132.072C71.3468 132.072 70.7388 131.912 70.0135 131.592C68.9895 131.187 67.9548 130.984 66.9095 130.984C65.9922 130.984 65.2135 131.24 64.5735 131.752C63.9335 132.264 63.6135 132.883 63.6135 133.608C63.6135 134.312 63.9335 134.824 64.5735 135.144C65.2135 135.464 66.1948 135.752 67.5175 136.008C69.7788 136.499 71.5068 137.203 72.7015 138.12C73.8962 139.059 74.4935 140.467 74.4935 142.344C74.4935 144.456 73.7575 146.131 72.2855 147.368C70.8135 148.627 68.9148 149.267 66.5895 149.288C64.1788 149.331 62.1095 148.915 60.3815 148.04C59.4002 147.592 58.9095 146.909 58.9095 145.992C58.9095 145.395 59.0908 144.861 59.4535 144.392C59.7948 143.944 60.2428 143.72 60.7975 143.72C61.3095 143.72 61.8855 143.859 62.5255 144.136C64.0402 144.797 65.3628 145.128 66.4935 145.128C67.4748 145.128 68.3068 144.883 68.9895 144.392C69.6508 143.923 69.9815 143.283 69.9815 142.472C69.9815 141.725 69.6508 141.149 68.9895 140.744C68.3068 140.339 67.3788 140.019 66.2055 139.784C64.0082 139.379 62.2802 138.717 61.0215 137.8C59.7842 136.904 59.1655 135.603 59.1655 133.896C59.1655 131.955 59.9335 130.312 61.4695 128.968C63.0055 127.624 64.8508 126.952 67.0055 126.952C68.0935 126.952 69.0855 127.059 69.9815 127.272C70.8988 127.464 71.7522 127.752 72.5415 128.136ZM87.7485 127.112C90.6712 127.112 93.1885 128.136 95.3005 130.184C97.4125 132.232 98.4685 134.824 98.4685 137.96C98.4685 141.139 97.4338 143.827 95.3645 146.024C93.2738 148.243 90.7138 149.352 87.6845 149.352C84.8685 149.352 82.3938 148.36 80.2605 146.376C78.1272 144.392 77.0605 141.811 77.0605 138.632C77.0605 135.197 78.1485 132.392 80.3245 130.216C81.4125 129.128 82.5645 128.339 83.7805 127.848C85.0178 127.336 86.3405 127.091 87.7485 127.112ZM93.9565 138.088C93.9138 136.019 93.2738 134.365 92.0365 133.128C90.7778 131.869 89.2738 131.24 87.5245 131.24C85.8392 131.24 84.4205 131.912 83.2685 133.256C82.1165 134.6 81.5405 136.307 81.5405 138.376C81.5405 140.424 82.1378 142.077 83.3325 143.336C84.5272 144.595 86.0205 145.224 87.8125 145.224C89.4978 145.224 90.9485 144.509 92.1645 143.08C93.3805 141.651 93.9885 139.976 93.9885 138.056L93.9565 138.088ZM106.344 147.016C106.344 148.509 105.683 149.256 104.36 149.256C102.867 149.256 102.088 148.616 102.024 147.336C102.024 146.653 102.024 145.683 102.024 144.424C102.024 143.165 102.035 141.608 102.056 139.752V132.872V129.224C102.078 128.627 102.366 128.147 102.92 127.784C103.454 127.443 104.062 127.272 104.744 127.272C105.278 127.272 105.726 127.4 106.088 127.656C106.43 127.912 106.814 128.328 107.24 128.904L114.344 138.856L116.04 141.384C116.019 140.403 115.998 139.464 115.976 138.568C115.976 137.651 115.976 136.765 115.976 135.912L115.912 129.736C115.912 128.861 116.094 128.221 116.456 127.816C116.798 127.432 117.395 127.24 118.248 127.24C119.656 127.24 120.36 127.976 120.36 129.448V140.296V142.824V147.144C120.36 147.763 120.104 148.243 119.592 148.584C119.059 148.947 118.44 149.128 117.736 149.128C117.182 149.128 116.734 149 116.392 148.744C116.072 148.509 115.71 148.072 115.304 147.432L106.28 134.536C106.238 135.923 106.238 138.12 106.28 141.128C106.302 142.643 106.312 143.88 106.312 144.84C106.334 145.779 106.344 146.461 106.344 146.888V147.016Z" fill="#E85B25"/>
</svg>
