<svg width="129" height="129" viewBox="0 0 129 129" fill="none" xmlns="http://www.w3.org/2000/svg">
<g clip-path="url(#clip0_236_669)">
<path d="M128.075 84.1623H0.925105C0.318153 84.1623 -0.124275 83.5874 0.0314311 83.0006L4.87773 64.7368C4.91905 64.5814 4.91905 64.4179 4.87773 64.2627L0.0316831 45.9989C-0.124023 45.4121 0.318405 44.8372 0.925357 44.8372H128.075C128.682 44.8372 129.124 45.4121 128.968 45.9989L124.122 64.2627C124.081 64.4181 124.081 64.5816 124.122 64.7368L128.968 83.0006C129.124 83.5874 128.682 84.1623 128.075 84.1623Z" fill="#10C4C4"/>
<path d="M124.122 64.7368C124.081 64.5814 124.081 64.4179 124.122 64.2627L128.968 45.9989C129.124 45.4124 128.681 44.8372 128.075 44.8372H119.896L114.678 64.4998L119.896 84.1623H128.075C128.682 84.1623 129.124 83.5874 128.968 83.0006L124.122 64.7368Z" fill="#04AFAF"/>
<path d="M101.163 36.3242C101.343 39.4111 103.09 42.1914 105.793 43.6922C109.798 45.9157 111.502 50.7865 109.757 55.022C108.58 57.8809 108.947 61.144 110.732 63.669C113.375 67.41 112.797 72.538 109.388 75.5969C107.086 77.6617 106.002 80.7609 106.514 83.8106C107.272 88.3281 104.527 92.6974 100.127 93.9741C97.158 94.8358 94.8362 97.1577 93.9743 100.127C92.6977 104.527 88.3283 107.272 83.8108 106.513C80.7614 106.002 77.6622 107.086 75.5972 109.387C72.5382 112.797 67.4102 113.375 63.6693 110.731C61.1439 108.947 57.8812 108.579 55.0223 109.757C50.7869 111.502 45.9162 109.797 43.6925 105.793C42.1916 103.089 39.4113 101.342 36.3244 101.163C31.7515 100.897 28.1024 97.2484 27.8369 92.6755C27.6575 89.5886 25.9105 86.8083 23.2073 85.3074C19.2025 83.0839 17.498 78.2132 19.2428 73.9776C20.4204 71.1187 20.0528 67.8557 18.2685 65.3306C15.625 61.5897 16.2027 56.4617 19.6124 53.4027C21.914 51.338 22.9984 48.2387 22.4864 45.1891C21.7278 40.6716 24.4733 36.3022 28.8727 35.0256C31.8422 34.1639 34.1642 31.8419 35.0258 28.8724C36.3025 24.4731 40.6718 21.7278 45.1893 22.4862C48.2387 22.9982 51.338 21.9138 53.403 19.6122C56.4619 16.2025 61.5899 15.6248 65.3309 18.2683C67.8562 20.0526 71.119 20.4202 73.9779 19.2426C78.2132 17.4978 83.0839 19.2022 85.3077 23.207C86.8085 25.9105 89.5888 27.6573 92.6757 27.8366C97.2487 28.1022 100.898 31.7512 101.163 36.3242Z" fill="#FFB125"/>
<path d="M110.731 63.6691C108.947 61.1437 108.58 57.881 109.757 55.0218C111.502 50.7865 109.797 45.9158 105.793 43.692C103.089 42.1912 101.342 39.4109 101.163 36.3239C100.897 31.751 97.2485 28.102 92.6755 27.8364C89.5886 27.6571 86.8083 25.91 85.3075 23.2068C83.084 19.202 78.2133 17.4976 73.9777 19.2424C72.9182 19.6787 71.8033 19.9017 70.6912 19.9204C71.9611 20.708 73.05 21.8188 73.8205 23.2068C75.3213 25.9103 78.1016 27.6571 81.1886 27.8364C85.7615 28.1022 89.4105 31.751 89.6761 36.3239C89.8554 39.4109 91.6025 42.1912 94.3057 43.692C98.3105 45.9155 100.015 50.7863 98.2701 55.0218C97.0923 57.8807 97.4601 61.1437 99.2444 63.6691C101.888 67.41 101.31 72.5378 97.9005 75.597C95.5989 77.662 94.5146 80.761 95.0265 83.8106C95.7851 88.3281 93.0396 92.6975 88.6403 93.9741C85.6708 94.8358 83.3488 97.1578 82.4871 100.127C81.2105 104.527 76.8411 107.272 72.3236 106.514C69.2742 106.002 66.175 107.086 64.1102 109.388C63.7918 109.743 63.4499 110.065 63.0903 110.358C63.2866 110.475 63.4806 110.598 63.6693 110.731C67.4103 113.375 72.5383 112.797 75.5972 109.388C77.662 107.086 80.7612 106.002 83.8106 106.514C88.3281 107.272 92.6975 104.527 93.9741 100.127C94.8358 97.1578 97.1578 94.836 100.127 93.9741C104.527 92.6975 107.272 88.3281 106.514 83.8106C106.002 80.7612 107.086 77.662 109.388 75.597C112.797 72.538 113.375 67.41 110.731 63.6691Z" fill="#FF901D"/>
<path d="M64.4998 101.413C84.8866 101.413 101.413 84.8865 101.413 64.4997C101.413 44.1129 84.8866 27.5862 64.4998 27.5862C44.113 27.5862 27.5863 44.1129 27.5863 64.4997C27.5863 84.8865 44.113 101.413 64.4998 101.413Z" fill="#E1EFFB"/>
<path d="M64.4998 27.5857C62.4104 27.5857 60.3625 27.7621 58.368 28.0956C75.8361 31.0165 89.1503 46.2019 89.1503 64.4997C89.1503 82.7975 75.8364 97.9829 58.368 100.904C60.3627 101.238 62.4106 101.414 64.4998 101.414C84.887 101.414 101.414 84.8869 101.414 64.5C101.414 44.113 84.887 27.5857 64.4998 27.5857Z" fill="#C3D8E5"/>
<path d="M64.4998 101.413C84.8866 101.413 101.413 84.8865 101.413 64.4997C101.413 44.1129 84.8866 27.5862 64.4998 27.5862C44.113 27.5862 27.5863 44.1129 27.5863 64.4997C27.5863 84.8865 44.113 101.413 64.4998 101.413Z" fill="#E1EFFB"/>
<path d="M64.4998 27.5857C62.4104 27.5857 60.3625 27.7621 58.368 28.0956C75.8361 31.0165 89.1503 46.2019 89.1503 64.4997C89.1503 82.7975 75.8364 97.9829 58.368 100.904C60.3627 101.238 62.4106 101.414 64.4998 101.414C84.887 101.414 101.414 84.8869 101.414 64.5C101.414 44.113 84.887 27.5857 64.4998 27.5857Z" fill="#C3D8E5"/>
<path d="M86.8388 51.7941H72.3087H66.9681L69.6647 45.2091C70.7582 42.9496 70.3581 40.2509 68.6562 38.4059C67.3971 37.0411 65.1873 37.2381 64.1895 38.8042L55.0036 53.9874C54.6595 54.5275 54.0631 54.8546 53.4226 54.8546H48.6464V77.5602H54.1384C54.3443 77.5602 54.5486 77.5943 54.7434 77.6605L62.0492 80.1513C64.8776 81.1155 67.8456 81.6076 70.834 81.6076H73.4846H80.5145H82.605C84.1646 81.6076 85.4289 80.3433 85.4289 78.7837V76.978C85.4289 75.4184 84.1646 74.1541 82.605 74.1541H84.4147C85.9743 74.1541 87.2386 72.8898 87.2386 71.3302V69.5245C87.2386 67.9649 85.9743 66.7006 84.4147 66.7006H85.8531C87.4127 66.7006 88.677 65.4363 88.677 63.8767V62.071C88.677 60.5114 87.4127 59.2471 85.8531 59.2471H86.8385C88.3981 59.2471 89.6624 57.9828 89.6624 56.4232V54.6175C89.6627 53.0584 88.3984 51.7941 86.8388 51.7941Z" fill="#FED9A8"/>
<path d="M85.4037 66.8825C85.2273 68.2726 84.0429 69.3481 82.605 69.3481H80.5145H73.4846H70.834C67.8456 69.3481 64.8779 68.8561 62.0492 67.8919L54.7433 65.4011C54.5486 65.3345 54.344 65.3008 54.1384 65.3008H48.6464V77.5605H54.1384C54.3443 77.5605 54.5486 77.5943 54.7433 77.6608L62.0492 80.1516C64.8776 81.1158 67.8456 81.6079 70.834 81.6079H73.4848H80.5148H82.6052C84.1648 81.6079 85.4291 80.3436 85.4291 78.784V76.9783C85.4291 75.4187 84.1648 74.1544 82.6052 74.1544H84.415C85.9746 74.1544 87.2389 72.8901 87.2389 71.3305V69.5248C87.2389 68.3136 86.475 67.2836 85.4037 66.8825Z" fill="#F2CA91"/>
<path d="M51.591 80.1867H43.4472C42.6618 80.1867 42.0251 79.55 42.0251 78.7647V53.8771C42.0251 53.0888 42.6664 52.4508 43.4547 52.4551L51.5986 52.4982C52.3811 52.5022 53.013 53.1379 53.013 53.9202V78.7647C53.013 79.55 52.3763 80.1867 51.591 80.1867Z" fill="#FF4C4C"/>
<path d="M42.0251 78.7645C42.0251 79.5499 42.6618 80.1866 43.4472 80.1866H51.591C52.3763 80.1866 53.013 79.5499 53.013 78.7645V68.0427H42.0251V78.7645Z" fill="#EA2828"/>
<path d="M88.6545 61.7306C88.6462 61.6623 88.6367 61.5945 88.6235 61.5277C88.6185 61.5023 88.6125 61.4773 88.6067 61.4522C88.5926 61.3892 88.5769 61.3269 88.5585 61.2655C88.5515 61.2418 88.5439 61.2181 88.5364 61.1947C88.5273 61.1672 88.5165 61.1407 88.5066 61.1135C88.1118 62.1972 87.073 62.9709 85.8528 62.9709H79.9551C77.8969 62.9709 76.2285 64.6394 76.2285 66.6976H85.8531C87.4127 66.6976 88.677 65.4333 88.677 63.8737V62.0712C88.677 61.9782 88.6719 61.8863 88.6631 61.7956C88.6611 61.7736 88.6571 61.7525 88.6545 61.7306Z" fill="#F2CA91"/>
<path d="M89.6497 54.3642C89.647 54.3343 89.6434 54.3045 89.6397 54.2751C89.6334 54.2221 89.625 54.17 89.6157 54.1178C89.6094 54.0833 89.6039 54.0488 89.5963 54.0148C89.5817 53.948 89.5648 53.882 89.5454 53.817C89.5442 53.8132 89.5434 53.8092 89.5424 53.8057C89.135 54.8644 88.1098 55.6164 86.9077 55.6164H81.01C78.9841 55.6164 77.3394 57.234 77.2882 59.2476H85.8579C85.8563 59.2476 85.8551 59.2473 85.8536 59.2473H86.839C88.3985 59.2473 89.6628 57.983 89.6628 56.4235V54.618C89.6628 54.6177 89.6628 54.6175 89.6628 54.6172C89.6626 54.532 89.6573 54.4479 89.6497 54.3642Z" fill="#F2CA91"/>
<path d="M87.2268 69.284C87.2044 69.0398 87.1515 68.8047 87.0711 68.5825C86.6781 69.6692 85.6375 70.446 84.4151 70.446H79.9558C77.8976 70.446 76.2291 72.1144 76.2291 74.1726H82.9195C82.8162 74.1612 82.7116 74.1542 82.6055 74.1542H84.4153C85.9749 74.1542 87.2392 72.8899 87.2392 71.3303V69.543C87.2392 69.4953 87.2354 69.449 87.2329 69.4019C87.2309 69.3626 87.2301 69.323 87.2268 69.284Z" fill="#F2CA91"/>
<path d="M85.4153 76.7075C85.4123 76.6771 85.4072 76.6471 85.4032 76.6166C85.3959 76.5589 85.3878 76.5012 85.377 76.4445C85.3702 76.4087 85.3616 76.3737 85.3536 76.3384C85.342 76.2883 85.3294 76.2384 85.3153 76.1895C85.3047 76.1533 85.2933 76.1175 85.2815 76.0817C85.2747 76.0615 85.2669 76.0416 85.2596 76.0217C84.8653 77.1061 83.826 77.8809 82.6053 77.8809H79.9557C77.8976 77.8809 76.2291 79.5493 76.2291 81.6075H80.5148H82.6053C83.19 81.6075 83.7335 81.4296 84.184 81.1253C84.2591 81.0746 84.3316 81.0202 84.4014 80.9628C84.5408 80.8476 84.669 80.7194 84.7842 80.58C84.8993 80.4405 85.0013 80.2898 85.0883 80.1298C85.3057 79.7297 85.4291 79.2712 85.4291 78.7839V76.9781C85.4289 76.8867 85.4239 76.7967 85.4153 76.7075Z" fill="#F2CA91"/>
</g>
<defs>
<clipPath id="clip0_236_669">
<rect width="129" height="129" fill="white"/>
</clipPath>
</defs>
</svg>
