<svg width="28" height="28" viewBox="0 0 28 28" fill="none" xmlns="http://www.w3.org/2000/svg">
<path d="M16.625 0H3.20833C1.435 0 0 1.435 0 3.20833V21.2917C0 23.065 1.435 24.5 3.20833 24.5H10.8967C10.2667 23.17 9.91667 21.6883 9.91667 20.125C9.91667 18.7833 10.1733 17.5 10.6517 16.3217C10.605 16.3333 10.5583 16.3333 10.5 16.3333H4.66667C4.025 16.3333 3.5 15.8083 3.5 15.1667C3.5 14.525 4.025 14 4.66667 14H10.5C10.9433 14 11.34 14.2567 11.5267 14.63C12.285 13.4517 13.265 12.4483 14.42 11.6667H4.66667C4.025 11.6667 3.5 11.1417 3.5 10.5C3.5 9.85833 4.025 9.33333 4.66667 9.33333H15.1667C15.8083 9.33333 16.3333 9.85833 16.3333 10.5C16.3333 10.5583 16.3333 10.605 16.3217 10.6517C17.4067 10.2083 18.5967 9.95167 19.8333 9.92833V3.20833C19.8333 1.435 18.3983 0 16.625 0V0ZM9.33333 7H4.66667C4.025 7 3.5 6.475 3.5 5.83333C3.5 5.19167 4.025 4.66667 4.66667 4.66667H9.33333C9.975 4.66667 10.5 5.19167 10.5 5.83333C10.5 6.475 9.975 7 9.33333 7Z" fill="white"/>
<path d="M20.125 12.25C15.7827 12.25 12.25 15.7827 12.25 20.125C12.25 24.4673 15.7827 28 20.125 28C24.4673 28 28 24.4673 28 20.125C28 15.7827 24.4673 12.25 20.125 12.25ZM23.3333 21.2917H21.2917V23.3333C21.2917 23.9773 20.769 24.5 20.125 24.5C19.481 24.5 18.9583 23.9773 18.9583 23.3333V21.2917H16.9167C16.2727 21.2917 15.75 20.769 15.75 20.125C15.75 19.481 16.2727 18.9583 16.9167 18.9583H18.9583V16.9167C18.9583 16.2727 19.481 15.75 20.125 15.75C20.769 15.75 21.2917 16.2727 21.2917 16.9167V18.9583H23.3333C23.9773 18.9583 24.5 19.481 24.5 20.125C24.5 20.769 23.9773 21.2917 23.3333 21.2917Z" fill="white"/>
</svg>
