<svg width="18" height="18" viewBox="0 0 18 18" fill="none" xmlns="http://www.w3.org/2000/svg">
<path d="M13.0405 3.58773C13.0387 3.54859 13.0287 3.51028 13.0112 3.47524C12.9936 3.4402 12.969 3.4092 12.9388 3.38425C11.9946 2.60177 10.8381 2.11947 9.6178 1.9993C9.41562 1.97919 9.20999 1.96914 9.0045 1.96896C9.00299 1.96896 9.00152 1.96875 9 1.96875C8.99849 1.96875 8.99705 1.96896 8.99554 1.96896C8.78995 1.96896 8.58439 1.97919 8.38234 1.9993C7.46536 2.08929 6.58025 2.38384 5.79219 2.86124C5.00413 3.33864 4.33319 3.98674 3.8288 4.7578L3.82666 4.76093C3.10168 5.86605 2.74953 7.17423 2.82175 8.49395C2.89398 9.81367 3.38679 11.0756 4.22803 12.095C4.25297 12.1252 4.28395 12.1499 4.31899 12.1675C4.35402 12.185 4.39234 12.1951 4.43148 12.197C4.43595 12.1972 4.44038 12.1973 4.44484 12.1973C4.51942 12.1973 4.59094 12.1676 4.64369 12.1149L12.9586 3.79993C12.9863 3.77222 13.0079 3.73903 13.022 3.70249C13.0361 3.66594 13.0424 3.62686 13.0405 3.58773ZM8.08791 7.875H6.36132C6.38519 7.15711 6.50242 6.44537 6.71007 5.75775C7.37635 5.84415 8.04698 5.89289 8.71875 5.90372V7.24416L8.08791 7.875ZM3.38281 7.875C3.42757 6.94454 3.70404 6.04001 4.18711 5.24352C4.83188 5.42458 5.48638 5.56904 6.14746 5.67619C5.93897 6.39149 5.82176 7.13029 5.79861 7.875H3.38281ZM8.54322 2.54992C8.60154 2.54521 8.66004 2.54109 8.71875 2.53821V5.34122C8.10907 5.3311 7.50034 5.28876 6.89513 5.21438C7.26811 4.22854 7.82768 3.32387 8.54322 2.54992ZM7.52545 8.4375L6.46552 9.49739C6.40831 9.14667 6.37357 8.79265 6.36153 8.4375H7.52545ZM9.28125 5.90375C9.55079 5.89946 9.82056 5.889 10.0906 5.87236L9.28125 6.68166V5.90375ZM10.7042 5.25867C10.2335 5.30564 9.75653 5.33334 9.28125 5.34115V2.53828C9.34003 2.54116 9.39861 2.54531 9.45704 2.54999C10.1094 3.25657 10.6328 4.07201 11.0037 4.95932L10.7042 5.25867ZM7.68868 2.68488C7.10487 3.42254 6.64409 4.24968 6.32416 5.13432C5.71706 5.03923 5.11548 4.91171 4.52201 4.75232C5.30552 3.71642 6.4251 2.98548 7.68868 2.68488ZM4.47072 11.4922C3.81651 10.6026 3.43805 9.54038 3.38235 8.4375H5.79861C5.81513 8.95587 5.87702 9.47181 5.98356 9.97938L4.47072 11.4922ZM11.4315 4.53129C11.1356 3.8719 10.7592 3.25164 10.3111 2.68464C11.0426 2.85909 11.7314 3.17957 12.3361 3.62682L11.4315 4.53129Z" fill="white"/>
<path d="M14.1734 4.76099C14.0496 4.57263 13.9156 4.39115 13.772 4.21737C13.747 4.18717 13.716 4.1625 13.681 4.14497C13.6459 4.12744 13.6076 4.11742 13.5685 4.11555C13.5294 4.11369 13.4903 4.12002 13.4537 4.13415C13.4172 4.14827 13.384 4.16988 13.3563 4.19758L5.04136 12.5124C5.01366 12.5401 4.99205 12.5733 4.97792 12.6098C4.96378 12.6464 4.95744 12.6854 4.9593 12.7246C4.96116 12.7637 4.97117 12.802 4.9887 12.8371C5.00623 12.8721 5.03088 12.9031 5.06109 12.9281C6.00521 13.7105 7.16173 14.1928 8.38205 14.313C8.77449 14.3517 9.16969 14.3534 9.56246 14.3182V15.7498C9.56246 15.8064 9.57953 15.8617 9.61144 15.9084C9.64334 15.9551 9.6886 15.9911 9.74129 16.0117C9.79399 16.0323 9.85167 16.0366 9.90681 16.0239C9.96195 16.0112 10.012 15.9821 10.0504 15.9406L12.5727 13.208C13.882 12.2818 14.7806 10.8835 15.0792 9.30781C15.3778 7.73208 15.0531 6.10196 14.1734 4.76096V4.76099ZM12.2248 12.765C12.2084 12.7766 12.1932 12.7898 12.1796 12.8046L10.125 15.0305V14.0022C10.125 13.9619 10.1163 13.922 10.0996 13.8854C10.0828 13.8487 10.0584 13.8161 10.028 13.7897C9.99754 13.7633 9.96177 13.7437 9.92311 13.7323C9.88446 13.721 9.8438 13.718 9.80391 13.7237C9.71876 13.7359 9.63966 13.7456 9.562 13.7533C9.18817 13.7902 8.8116 13.7902 8.43777 13.7533C7.43369 13.6544 6.47512 13.2854 5.66394 12.6855L13.5293 4.82009C13.5898 4.90212 13.6479 4.98542 13.7034 5.06998C14.5056 6.29318 14.7999 7.78072 14.5239 9.21722C14.2478 10.6537 13.4232 11.9263 12.2248 12.765Z" fill="white"/>
<path d="M9 11.5312C9.31066 11.5312 9.5625 11.2794 9.5625 10.9688C9.5625 10.6581 9.31066 10.4062 9 10.4062C8.68934 10.4062 8.4375 10.6581 8.4375 10.9688C8.4375 11.2794 8.68934 11.5312 9 11.5312Z" fill="white"/>
<path d="M10.6875 11.5312C10.9982 11.5312 11.25 11.2794 11.25 10.9688C11.25 10.6581 10.9982 10.4062 10.6875 10.4062C10.3768 10.4062 10.125 10.6581 10.125 10.9688C10.125 11.2794 10.3768 11.5312 10.6875 11.5312Z" fill="white"/>
<path d="M12.375 11.5312C12.6857 11.5312 12.9375 11.2794 12.9375 10.9688C12.9375 10.6581 12.6857 10.4062 12.375 10.4062C12.0643 10.4062 11.8125 10.6581 11.8125 10.9688C11.8125 11.2794 12.0643 11.5312 12.375 11.5312Z" fill="white"/>
<path d="M2.81223 11.9554C2.73822 11.9461 2.66356 11.9667 2.60468 12.0124C2.54581 12.0582 2.50754 12.1256 2.49828 12.1996L2.47452 12.3894C1.47127 10.9759 1.0027 9.25199 1.15237 7.52511C1.30204 5.79823 2.06021 4.18065 3.29169 2.96082C3.31809 2.93486 3.33911 2.90395 3.35354 2.86985C3.36797 2.83575 3.37552 2.79914 3.37577 2.76212C3.37601 2.7251 3.36894 2.68839 3.35497 2.6541C3.341 2.61982 3.32039 2.58863 3.29433 2.56232C3.26828 2.53602 3.23728 2.51512 3.20313 2.50082C3.16898 2.48652 3.13234 2.47911 3.09532 2.47901C3.05829 2.4789 3.02161 2.48611 2.98738 2.50021C2.95315 2.51432 2.92204 2.53504 2.89583 2.5612C1.57263 3.87179 0.75673 5.60891 0.593003 7.46409C0.429277 9.31927 0.928324 11.1724 2.00153 12.6945L1.76387 12.6594C1.72733 12.654 1.69009 12.6558 1.65426 12.6648C1.61843 12.6738 1.58473 12.6897 1.55507 12.7117C1.49516 12.7562 1.45537 12.8226 1.44444 12.8964C1.43351 12.9702 1.45235 13.0453 1.4968 13.1052C1.54125 13.1651 1.60767 13.2049 1.68146 13.2158L2.63068 13.3565C2.66775 13.3619 2.70554 13.36 2.74183 13.3506C2.77813 13.3413 2.81219 13.3248 2.84203 13.3022C2.87187 13.2795 2.89687 13.2511 2.91558 13.2186C2.93428 13.1862 2.94631 13.1503 2.95096 13.1131L3.05642 12.2693C3.06101 12.2327 3.05833 12.1955 3.04854 12.1599C3.03874 12.1243 3.02203 12.0909 2.99936 12.0618C2.97668 12.0326 2.94849 12.0082 2.91638 11.99C2.88427 11.9717 2.84888 11.9599 2.81223 11.9554Z" fill="white"/>
<path d="M15.9797 3.375C16.0543 3.375 16.1259 3.34537 16.1786 3.29262C16.2313 3.23988 16.261 3.16834 16.261 3.09375C16.261 3.01916 16.2313 2.94762 16.1786 2.89488C16.1259 2.84213 16.0543 2.8125 15.9797 2.8125H15.136C15.0614 2.8125 14.9898 2.84213 14.9371 2.89488C14.8844 2.94762 14.8547 3.01916 14.8547 3.09375V3.9375C14.8547 4.01209 14.8844 4.08363 14.9371 4.13637C14.9898 4.18912 15.0614 4.21875 15.136 4.21875C15.2106 4.21875 15.2821 4.18912 15.3348 4.13637C15.3876 4.08363 15.4172 4.01209 15.4172 3.9375V3.84476C16.4419 5.24847 16.9331 6.97124 16.8029 8.70427C16.6726 10.4373 15.9294 12.0673 14.7064 13.3021C14.6539 13.3551 14.6246 13.4267 14.625 13.5013C14.6254 13.5759 14.6553 13.6473 14.7083 13.6998C14.7613 13.7523 14.833 13.7816 14.9076 13.7813C14.9822 13.7809 15.0536 13.7509 15.1061 13.6979C16.444 12.3471 17.2481 10.5578 17.3698 8.66044C17.4915 6.76307 16.9227 4.88573 15.7683 3.375H15.9797Z" fill="white"/>
</svg>
