<svg width="14" height="14" viewBox="0 0 14 14" fill="none" xmlns="http://www.w3.org/2000/svg">
<path d="M13.031 5.92177L7.19729 0.0851473C7.14246 0.0303141 7.06841 0 6.99086 0C6.91332 0 6.83924 0.0309154 6.78443 0.0857214L0.968201 5.92177C0.884803 6.00517 0.860312 6.13053 0.905222 6.23959C0.950707 6.34863 1.05685 6.41921 1.17463 6.41921H4.38188V13.7084C4.38188 13.8694 4.51252 14 4.67346 14H9.33858C9.49953 14 9.63016 13.8694 9.63016 13.7084V6.41918H12.8252C12.9429 6.41918 13.0491 6.34803 13.0946 6.23899C13.1401 6.12995 13.1144 6.00517 13.031 5.92177Z" fill="#7D7D7D"/>
</svg>
