<svg width="35" height="35" viewBox="0 0 35 35" fill="none" xmlns="http://www.w3.org/2000/svg">
<path d="M17.5002 0C7.85209 0 0.00170898 7.85056 0.00170898 17.5C0.00170898 27.149 7.85198 35 17.5002 35C27.1496 35 34.9993 27.149 34.9993 17.5C34.9993 7.85056 27.1496 0 17.5002 0ZM28.1808 23.2921C27.9309 23.5415 27.6034 23.6675 27.2761 23.6675C26.9482 23.6675 26.6209 23.5415 26.3708 23.2921L17.5002 14.4221L8.63051 23.2921C8.13046 23.7921 7.31902 23.7921 6.81897 23.2921C6.3186 22.7922 6.3186 21.9816 6.81897 21.4815L16.5949 11.7067C17.0956 11.2068 17.9045 11.2068 18.4043 11.7067L28.1802 21.4815C28.6809 21.9816 28.6809 22.7922 28.1808 23.2921Z" fill="white"/>
</svg>
